<?xml version="1.0" encoding="utf-8"?>
<svg width="60.28275px" height="60.282745px" viewBox="0 0 60.28275 60.282745" version="1.1" xmlns:xlink="http://www.w3.org/1999/xlink" xmlns="http://www.w3.org/2000/svg">
  <defs>
    <radialGradient gradientUnits="objectBoundingBox" cx="50%" cy="50%" fx="50%" fy="50%" r="50.72891%" gradientTransform="translate(0.5,0.5),rotate(-80.27553),translate(-0.5,-0.5)" id="gradient_1">
      <stop offset="0%" stop-color="#FFFFFF" />
      <stop offset="62.90027%" stop-color="#E7F7FF" />
      <stop offset="100%" stop-color="#9ADFFF" />
    </radialGradient>
  </defs>
  <g id="Group-2">
    <path d="M60.2827 30.1414C60.2827 46.7991 46.7991 60.2827 30.1414 60.2827C13.5075 60.2827 0 46.7991 0 30.1414C0 13.5075 13.4837 0 30.1414 0C46.7991 0 60.2827 13.5075 60.2827 30.1414Z" id="Path-Copy" fill="url(#gradient_1)" stroke="none" />
    <g id="Group" transform="translate(11 13)">
      <path d="M26.2167 0L11.7972 0C10.1773 0 8.66366 0.873832 7.84045 2.27726L0.61741 14.7227C-0.205803 16.1262 -0.205803 17.8738 0.61741 19.2773L7.84045 31.7227C8.66366 33.1262 10.1508 34 11.7972 34L26.2167 34C27.8366 34 29.3502 33.1262 30.1734 31.7227L37.3965 19.2773C38.2197 17.8738 38.2197 16.1262 37.3965 14.7227L30.1734 2.27726C29.3502 0.873832 27.8366 0 26.2167 0Z" id="Path" fill="#00C86B" stroke="none" />
      <g id="Group" transform="translate(4.1319447 7.4634147)">
        <path d="M20.0886 21.6968L19.7979 21.6968C19.1371 21.6968 18.4234 21.8289 15.5687 21.8289C15.2251 21.8289 14.9343 21.6968 14.6964 21.3796C14.2471 21.0889 13.9299 20.8247 13.4012 20.8247C12.9519 20.8247 12.529 21.0889 11.5245 21.591C11.1545 21.8553 10.3879 22.0932 10.0972 22.2517C10.0972 22.0932 10.0972 21.6968 10.2558 21.591C10.3879 20.9568 10.3879 20.3754 10.2558 20.164C10.0972 19.9526 9.96502 19.9526 9.83286 19.9526C8.96059 19.9526 8.14119 20.9568 7.13675 21.8289C6.50238 22.3839 5.84156 23.1238 5.49794 23.1238C5.26005 22.6217 6.26448 20.6925 6.50238 19.8204C7.13675 18.3934 7.37465 18.1027 6.95173 17.7591C6.81956 17.627 6.60811 17.627 6.23805 17.7591C5.68297 18.2612 4.94286 18.8162 4.38778 19.5297C3.11903 20.719 1.82384 21.961 0.819405 21.591C0.687243 21.3796 0.370054 21.591 0.185027 21.7232C0.0528648 21.8553 0.185027 22.0932 0.343621 22.2782C1.82384 22.9917 3.25119 21.6175 4.78427 20.1904C5.20719 19.8469 5.44508 19.424 5.92086 19.1862C5.7887 19.3183 5.7887 19.4504 5.65654 19.5562C4.78427 21.4061 4.22919 22.8596 4.65211 23.5467C4.78427 23.6788 4.91643 23.8374 5.20719 23.8374C5.7887 23.8374 6.47594 23.1767 7.34821 22.2782C8.11475 21.6175 8.77556 20.8511 9.35708 20.719C9.35708 20.8511 9.35708 21.0889 9.22491 21.3796C9.01346 21.961 9.01346 22.5953 9.22491 22.8596C9.35708 22.9917 9.51567 23.1503 9.64783 23.1503C10.0179 23.1503 10.6523 22.8596 11.4452 22.2782C11.9475 21.9875 12.7404 21.6175 12.8726 21.6175C13.2162 21.6175 13.507 21.7496 13.7449 21.9875C14.0885 22.2782 14.5114 22.6217 15.04 22.6217C16.626 22.6217 18.2648 22.4103 19.745 22.4103C19.9829 22.3574 20.3265 21.6968 20.0886 21.6968Z" id="Path" fill="#FFFBF6" fill-rule="evenodd" stroke="none" />
        <g id="Group" transform="translate(19.824316 0)">
          <path d="M0.237892 21.3003C0.211459 21.6175 0.343621 21.6968 0.607946 21.5118C1.34805 20.9568 1.69167 20.6661 1.69167 20.6661C1.32162 20.349 0.87227 20.1111 0.422919 19.979C0.290757 20.8511 0.237892 21.3003 0.237892 21.3003Z" id="Path" fill="#FFFBF6" fill-rule="evenodd" stroke="none" />
          <path d="M0.502216 19.1862C1.18946 19.2919 1.82384 19.6354 2.29962 20.164C4.44065 18.4462 5.89443 17.2834 6.63454 16.6756L1.18946 13.5836C0.713675 17.3098 0.502216 19.1862 0.502216 19.1862Z" id="Path" fill="#FFFBF6" fill-rule="evenodd" stroke="none" />
          <path d="M8.7227 0.237845L8.7227 0.237845L8.24692 1.08352L7.26892 2.82771L1.53308 12.9758L7.26892 16.2263L8.6434 13.9007L8.66983 13.8479L8.69627 13.795L8.74913 13.7157L8.90773 13.425L8.90773 13.425L9.03989 13.1872L9.19848 12.8965L9.25135 12.7908L9.33064 12.6322L9.46281 12.4208L9.56854 12.2358L9.6214 12.1301L9.72713 11.9187L9.88573 11.6016L9.93859 11.5223L10.2558 10.9673L10.3351 10.8352L10.3615 10.8087L12.5554 6.87108" id="Path" fill="#FFFBF6" fill-rule="evenodd" stroke="none" />
        </g>
      </g>
      <path d="M16.5278 13.8163C16.5768 12.1655 17.8269 10.8075 19.3711 10.7809C20.9889 10.7542 22.3125 12.1655 22.3125 13.9228C22.3125 14.1092 22.288 14.2956 22.2635 14.4554C22.1164 15.3341 21.6262 16.1063 20.9399 16.5589C20.6702 16.7453 20.5232 17.1181 20.5722 17.4642L21.4056 21.8843C21.4546 22.1506 21.2585 22.3902 21.0134 22.3902L17.7043 22.3636C17.4592 22.3636 17.2631 22.124 17.3121 21.8311L18.1946 17.411C18.2681 17.0648 18.121 16.6921 17.8514 16.5057C17.1651 16.0264 16.6994 15.2808 16.5523 14.3755C16.5278 14.2424 16.5278 14.0294 16.5278 13.8163Z" id="Path" fill="#2A894E" stroke="none" />
    </g>
  </g>
</svg>