<svg width="188" height="101" viewBox="0 0 188 101" fill="none" xmlns="http://www.w3.org/2000/svg">
<path opacity="0.19" d="M94.586 59.5254C68.641 60.9692 12.1571 64.1336 12.257 66.7443C12.3169 68.2672 31.4711 68.4057 31.531 70.6208C31.6109 73.1523 6.44482 75.4466 6.52471 78.8681C6.56466 81.0041 16.3914 81.2019 16.9507 84.5444C17.7096 89.2119 -0.565733 93.9389 0.013486 97.4395C0.772463 101.949 32.2301 100.307 37.5229 100.011C59.9527 98.7646 76.3506 96.4111 85.718 95.1057C133.474 88.4802 163.933 86.7002 163.873 82.9819C163.833 80.8459 153.826 79.8966 153.966 78.077C154.226 74.7741 187.301 76.5739 187.84 72.6579C188.2 70.0274 173.779 65.3599 158.66 62.3339C134.213 57.4685 115.178 58.3585 94.586 59.5254Z" fill="#6165D7"/>
<path d="M56.7878 88.0139C54.9591 88.441 51.7839 89.2341 47.182 89.9662C37.9781 91.4304 34.2805 90.9017 26.5637 91.7354C16.9177 92.7726 6.88989 95.2943 6.99037 96.3314C7.05066 96.9822 11.11 97.4702 30.0604 96.5144C36.1293 94.7452 45.1724 92.6506 56.2653 92.1015C69.6893 91.4304 69.8702 93.8301 81.6061 93.342C99.4311 92.6099 102.626 86.9158 125.114 85.2076C132.931 84.6178 138.919 84.8212 138.919 84.4958C138.919 84.0077 124.993 83.0316 110.444 83.0723C104.053 83.0723 77.6271 83.174 56.7878 88.0139Z" fill="#D8DEE8"/>
<path d="M97.8602 75.4339C98.0585 76.5459 103.948 76.054 118.028 75.2415C138.692 74.0654 136.887 74.5144 149.063 73.5735C163.976 72.4188 176.469 71.4565 176.489 70.0452C176.489 69.0616 170.54 68.2704 165.443 67.6288C149.797 65.6188 131.136 63.4162 109.739 70.0452C108.965 70.3018 97.5825 73.8515 97.8602 75.4339Z" fill="#D8DEE8"/>
<path opacity="0.5" fill-rule="evenodd" clip-rule="evenodd" d="M58.9023 15.8181L60.4185 15.8382C61.2564 15.8583 61.9547 16.5013 61.8749 17.285V17.6266C61.8749 18.4102 61.1966 19.0331 60.3387 19.0331L58.8424 19.013C58.6828 20.3392 58.3038 21.6051 57.7651 22.7706L59.0818 23.4738C59.82 23.8556 60.0594 24.7397 59.6404 25.4229L59.4609 25.7243C59.0419 26.4276 58.0843 26.6687 57.3462 26.2668L56.0295 25.5636C55.1716 26.6285 54.1542 27.5528 53.017 28.3566L53.7951 29.5823C54.234 30.2856 53.9746 31.1697 53.2165 31.5716L52.8774 31.7524C52.1392 32.1543 51.1616 31.9333 50.7227 31.2501L49.9447 30.0445C48.6479 30.5669 47.2315 30.9286 45.7552 31.1094V32.5361C45.7552 33.3398 45.037 34.0029 44.1392 34.023H43.7402C42.8425 34.0431 42.1043 33.38 42.1043 32.5763V31.1496C40.608 31.009 39.1517 30.6674 37.7951 30.165L36.9771 31.4309C36.5183 32.1543 35.5008 32.4155 34.7028 32.0136L34.3437 31.8328C33.5457 31.4309 33.2664 30.5267 33.7253 29.8033L34.5432 28.5374C33.3263 27.7538 32.229 26.7893 31.3113 25.7042L29.8749 26.4477C29.0569 26.8697 28.0195 26.6285 27.5407 25.9052L27.3412 25.5837C26.8624 24.8603 27.1417 23.936 27.9597 23.514L29.3961 22.7906C28.7976 21.5649 28.3786 20.2387 28.1991 18.8523L26.5233 18.8322C25.5856 18.8322 24.8076 18.149 24.8076 17.3051V16.9434C24.8076 16.1195 25.5657 15.4364 26.5233 15.4565L28.1991 15.4765C28.3986 14.0901 28.7976 12.784 29.3961 11.5583L27.9597 10.7947C27.1417 10.3728 26.8624 9.42835 27.3412 8.72508L27.5407 8.42367C28.0195 7.7003 29.0569 7.47927 29.8749 7.92133L31.3113 8.68489C32.229 7.59983 33.3263 6.67552 34.5432 5.89187L33.7253 4.60587C33.2664 3.86241 33.5457 2.95819 34.3437 2.57641L34.7028 2.41566C35.5008 2.03388 36.5183 2.3152 36.9771 3.03857L37.7751 4.30447C39.1317 3.82222 40.5881 3.52082 42.0844 3.40025V1.95351C42.0844 1.14976 42.8225 0.506765 43.7203 0.546953L44.1193 0.567046C45.017 0.607234 45.7352 1.29042 45.7352 2.09417V3.52082C47.2315 3.72175 48.628 4.12363 49.9447 4.66615L50.7227 3.46053C51.1616 2.77735 52.1193 2.57641 52.8774 2.99838L53.2165 3.17922C53.9746 3.60119 54.234 4.48531 53.7951 5.1685L53.037 6.37412C54.1741 7.17786 55.1916 8.14236 56.0494 9.20732L57.3661 8.54423C58.1043 8.16245 59.0619 8.42367 59.4808 9.12695L59.6604 9.42835C60.0993 10.1316 59.8399 10.9957 59.1018 11.3774L57.805 12.0405C58.3636 13.2261 58.7427 14.492 58.9023 15.8181ZM32.4484 17.1845C32.4484 22.9313 37.6554 27.5729 43.9796 27.5327C50.1641 27.4926 55.0918 22.9715 55.0918 17.4256C55.0918 11.8798 50.1641 7.23814 43.9796 7.07739C37.6754 6.89655 32.4484 11.4176 32.4484 17.1845Z" fill="url(#paint0_linear_0_5477)"/>
<path opacity="0.15" fill-rule="evenodd" clip-rule="evenodd" d="M53.1766 45.4161L54.1143 45.3759C54.6529 45.3558 55.0719 45.7376 55.0519 46.2399V46.461C55.0519 46.9633 54.613 47.3853 54.0943 47.4054L53.1567 47.4456C53.037 48.2895 52.8175 49.0731 52.4784 49.8367L53.2963 50.2185C53.7552 50.4395 53.9148 50.982 53.6554 51.4241L53.5357 51.625C53.2764 52.0671 52.6779 52.2479 52.219 52.0269L51.4011 51.6451C50.8823 52.3283 50.2439 52.9512 49.5457 53.4938L50.0245 54.2372C50.2838 54.6592 50.1242 55.2218 49.6654 55.5031L49.4659 55.6237C49.007 55.905 48.4085 55.8045 48.1292 55.3826L47.6504 54.6592C46.8524 55.041 45.9746 55.3223 45.0569 55.483V56.3872C45.0569 56.8896 44.618 57.3316 44.0594 57.3718L43.82 57.3919C43.2614 57.4321 42.8026 57.0503 42.8026 56.548V55.6438C41.8649 55.6036 40.9671 55.4428 40.1292 55.1816L39.6305 56.0055C39.3512 56.4676 38.7128 56.6686 38.214 56.4475L37.9946 56.3471C37.4958 56.126 37.3362 55.5634 37.6155 55.1012L38.1143 54.2774C37.3562 53.8153 36.6978 53.2526 36.1193 52.6096L35.2215 53.1321C34.7028 53.4134 34.0644 53.3129 33.7652 52.8709L33.6455 52.69C33.3462 52.268 33.5258 51.6652 34.0245 51.3839L34.9223 50.8816C34.5632 50.118 34.3038 49.3143 34.1841 48.4502L33.1467 48.5105C32.5482 48.5306 32.0694 48.1287 32.0694 47.6063V47.3853C32.0694 46.8628 32.5482 46.4007 33.1467 46.3806L34.1841 46.3404C34.3038 45.4764 34.5432 44.6324 34.9223 43.8488L34.0245 43.4268C33.5258 43.1656 33.3462 42.603 33.6455 42.1408L33.7652 41.9399C34.0644 41.4777 34.7228 41.2969 35.2215 41.538L36.0993 41.96C36.6579 41.2567 37.3362 40.6137 38.0943 40.0913L37.5956 39.3076C37.2963 38.8656 37.4759 38.2828 37.9746 38.0216L38.1941 37.9011C38.6928 37.6198 39.3312 37.7604 39.6105 38.2025L40.1093 38.966C40.9472 38.6043 41.8449 38.3632 42.7826 38.2427V37.3384C42.7826 36.8361 43.2415 36.4141 43.8001 36.394H44.0395C44.5781 36.394 45.037 36.7959 45.037 37.2983V38.1824C45.9547 38.2427 46.8325 38.4436 47.6504 38.745L48.1292 37.9613C48.3886 37.5193 49.007 37.3585 49.4659 37.5997L49.6654 37.7001C50.1242 37.9413 50.2838 38.4838 50.0245 38.9258L49.5457 39.7095C50.2639 40.1717 50.9023 40.7343 51.421 41.3773L52.239 40.9151C52.6978 40.6539 53.2963 40.7745 53.5557 41.1964L53.6754 41.3773C53.9347 41.7992 53.7751 42.3619 53.3163 42.6231L52.4983 43.0852C52.8375 43.8086 53.0769 44.5923 53.1766 45.4161ZM36.7577 47.2245C36.7577 50.8213 40.0095 53.554 43.9198 53.2928C47.7701 53.0316 50.8225 50.0376 50.8225 46.5614C50.8225 43.0852 47.7502 40.3525 43.9198 40.4731C39.9896 40.5936 36.7577 43.6077 36.7577 47.2245Z" fill="url(#paint1_linear_0_5477)"/>
<path opacity="0.5" fill-rule="evenodd" clip-rule="evenodd" d="M50.0245 16.7023H50.6429C51.002 16.7023 51.2813 16.9635 51.3013 17.2649V17.4055C51.3013 17.727 51.022 17.9883 50.6629 17.9883H50.0444C49.9846 18.5107 49.825 19.013 49.6055 19.4953L50.1442 19.7766C50.4634 19.9574 50.5631 20.299 50.3836 20.5803L50.3038 20.7009C50.1242 20.9621 49.7252 21.0626 49.426 20.9018L48.8873 20.6205C48.5482 21.0425 48.1292 21.4042 47.6704 21.7257L47.9896 22.228C48.1691 22.5093 48.0494 22.871 47.7502 23.0318L47.6105 23.1121C47.3113 23.2729 46.9123 23.1724 46.7327 22.8911L46.4135 22.4089C45.8749 22.6098 45.3162 22.7505 44.7177 22.8107V23.3734C44.7177 23.6949 44.4384 23.9561 44.0793 23.9561H43.9197C43.5606 23.9561 43.2614 23.6949 43.2614 23.3734V22.8107C42.6629 22.7304 42.0843 22.5897 41.5457 22.3888L41.2265 22.8911C41.0469 23.1724 40.6479 23.2729 40.3287 23.1121L40.1891 23.0318C39.8699 22.871 39.7701 22.5093 39.9497 22.228L40.2689 21.7257C39.7901 21.4042 39.3711 21.0224 39.012 20.6004L38.4534 20.8817C38.1342 21.0425 37.7352 20.942 37.5557 20.6607L37.4759 20.5402C37.2963 20.2588 37.3961 19.8972 37.7153 19.7364L38.2739 19.4551C38.0544 18.9728 37.8948 18.4504 37.815 17.9079H37.1766C36.8175 17.9079 36.5182 17.6266 36.5182 17.3051V17.1644C36.5182 16.8429 36.8175 16.5817 37.1766 16.5817H37.815C37.8749 16.0392 38.0345 15.5167 38.2739 15.0345L37.7153 14.7331C37.3961 14.5723 37.2963 14.2106 37.4759 13.9293L37.5557 13.8088C37.7352 13.5275 38.1342 13.4471 38.4534 13.6078L39.012 13.9092C39.3711 13.4873 39.7901 13.1256 40.2689 12.8041L39.9497 12.3017C39.7701 12.0204 39.8699 11.6587 40.1891 11.498L40.3287 11.4377C40.6479 11.2971 41.0469 11.3975 41.2265 11.6788L41.5457 12.1812C42.0644 11.9802 42.6429 11.8597 43.2414 11.7994V11.2167C43.2414 10.8751 43.5407 10.634 43.8998 10.634H44.0594C44.3985 10.6541 44.6978 10.9153 44.6978 11.2368V11.7994C45.2963 11.8798 45.8749 12.0204 46.3936 12.2415L46.7128 11.7592C46.8923 11.4779 47.2913 11.3975 47.5906 11.5583L47.7302 11.6387C48.0494 11.7994 48.1492 12.1611 47.9696 12.4424L47.6504 12.9247C48.1093 13.2461 48.5282 13.6279 48.8674 14.0499L49.406 13.7686C49.7252 13.6078 50.1043 13.7083 50.2838 13.9896L50.3636 14.1102C50.5232 14.3915 50.4235 14.7331 50.1242 14.8938L49.5856 15.1751C49.805 15.6574 49.9646 16.1597 50.0245 16.7023ZM39.431 17.2247C39.431 19.4953 41.4659 21.364 43.9796 21.364C46.4734 21.3841 48.4684 19.5757 48.4684 17.3252C48.4684 15.0747 46.4734 13.2261 43.9796 13.1859C41.4858 13.1457 39.431 14.9541 39.431 17.2247Z" fill="url(#paint2_linear_0_5477)"/>
<path opacity="0.15" d="M163.88 13.4873L71.2913 11.7793C67.5407 11.719 64.4883 14.2709 64.4883 17.506C64.4883 20.7411 67.5607 23.3533 71.2913 23.3533L163.88 23.3934C166.593 23.3934 168.768 21.2032 168.768 18.4906C168.768 15.7779 166.593 13.5275 163.88 13.4873Z" fill="url(#paint3_linear_0_5477)"/>
<path opacity="0.15" d="M171.401 29.08L81.5257 29.9842C77.8948 30.0244 74.9222 32.6366 74.9222 35.8114C74.9222 38.9862 77.8948 41.4778 81.5257 41.3773L171.401 38.8656C174.034 38.7852 176.169 36.5548 176.169 33.8824C176.149 31.2099 174.034 29.0599 171.401 29.08Z" fill="url(#paint4_linear_0_5477)"/>
<path opacity="0.15" d="M108.778 5.87179L65.825 4.60589C64.229 4.5657 62.9521 5.61057 62.9521 6.97694C62.9521 8.32322 64.2489 9.44846 65.825 9.48865L108.778 10.4331C110.154 10.4531 111.271 9.46856 111.271 8.22275C111.251 6.97694 110.154 5.91198 108.778 5.87179Z" fill="url(#paint5_linear_0_5477)"/>
<path opacity="0.5" fill-rule="evenodd" clip-rule="evenodd" d="M178.942 32.8978L179.72 32.8777C180.159 32.8777 180.518 33.2394 180.498 33.6613V33.8623C180.498 34.3244 180.139 34.7062 179.7 34.7062L178.922 34.7263C178.842 35.4899 178.643 36.2333 178.364 36.9165L179.042 37.2983C179.441 37.5193 179.561 38.0217 179.341 38.4235L179.241 38.6044C179.022 39.0062 178.523 39.167 178.144 38.946L177.466 38.5642C177.027 39.1871 176.488 39.7497 175.91 40.2119L176.309 40.895C176.528 41.2768 176.388 41.7993 176.009 42.0404L175.83 42.1409C175.431 42.382 174.932 42.2614 174.713 41.8796L174.314 41.1965C173.635 41.518 172.917 41.739 172.159 41.8595V42.6834C172.159 43.1455 171.8 43.5273 171.341 43.5474H171.142C170.703 43.5675 170.324 43.2058 170.324 42.7437V41.9198C169.566 41.8395 168.827 41.6787 168.149 41.3974L167.75 42.1208C167.531 42.5226 167.012 42.6834 166.613 42.4624L166.433 42.3619C166.034 42.1409 165.895 41.6385 166.134 41.2165L166.553 40.4932C165.935 40.0511 165.396 39.5287 164.937 38.9259L164.219 39.3679C163.82 39.6091 163.301 39.4885 163.062 39.0866L162.962 38.9058C162.743 38.5039 162.882 37.9815 163.281 37.7403L163.999 37.2983C163.7 36.6151 163.501 35.8716 163.401 35.088L162.563 35.1081C162.084 35.1081 161.705 34.7464 161.705 34.2641V34.0632C161.705 33.601 162.084 33.1992 162.563 33.1992L163.401 33.1791C163.501 32.3954 163.7 31.652 163.999 30.9487L163.281 30.5468C162.862 30.3057 162.723 29.7832 162.962 29.3814L163.062 29.2005C163.301 28.7987 163.82 28.6379 164.219 28.879L164.937 29.2809C165.396 28.658 165.935 28.0954 166.553 27.6332L166.134 26.9099C165.895 26.508 166.034 25.9855 166.433 25.7444L166.613 25.644C167.012 25.4028 167.511 25.5435 167.75 25.9454L168.149 26.6486C168.827 26.3472 169.566 26.1463 170.324 26.0458V25.222C170.324 24.7598 170.703 24.3781 171.162 24.3781H171.361C171.82 24.3781 172.179 24.7598 172.179 25.222V26.0458C172.937 26.1262 173.655 26.3271 174.334 26.6084L174.733 25.9052C174.972 25.5033 175.471 25.3827 175.85 25.6038L176.029 25.7042C176.428 25.9454 176.548 26.4477 176.329 26.8496L175.93 27.5529C176.528 28.015 177.047 28.5374 177.486 29.1403L178.164 28.7183C178.543 28.4973 179.042 28.6178 179.261 29.0197L179.361 29.2005C179.58 29.5823 179.441 30.0847 179.062 30.3258L178.383 30.7277C178.663 31.4108 178.862 32.1342 178.942 32.8978ZM165.436 34.0833C165.436 37.3586 168.069 39.9306 171.261 39.8301C174.413 39.7296 176.967 37.0773 176.967 33.8623C176.967 30.6674 174.413 28.0954 171.261 28.1155C168.049 28.1356 165.436 30.808 165.436 34.0833Z" fill="url(#paint6_linear_0_5477)"/>
<path opacity="0.5" fill-rule="evenodd" clip-rule="evenodd" d="M177.625 18.0686C177.745 18.3499 177.825 18.6514 177.865 18.9729H178.184C178.383 18.9729 178.523 19.1336 178.523 19.3144V19.3948C178.523 19.5757 178.364 19.7364 178.184 19.7364H177.865C177.825 20.0579 177.745 20.3593 177.625 20.6406L177.905 20.8014C178.064 20.8818 178.124 21.1028 178.024 21.2635L177.984 21.3439C177.885 21.5047 177.685 21.5649 177.526 21.4645L177.246 21.3037C177.067 21.5649 176.847 21.786 176.608 21.9668L176.768 22.2682C176.867 22.429 176.807 22.6299 176.648 22.7304L176.568 22.7706C176.408 22.871 176.209 22.8107 176.109 22.65L175.95 22.3687C175.67 22.4892 175.391 22.5696 175.072 22.6098V22.9514C175.072 23.1322 174.912 23.293 174.733 23.293H174.653C174.473 23.293 174.314 23.1523 174.314 22.9514V22.6098C174.014 22.5696 173.715 22.4892 173.436 22.3687L173.276 22.6701C173.196 22.8308 172.977 22.8911 172.817 22.7906L172.738 22.7505C172.578 22.65 172.518 22.429 172.618 22.2682L172.777 21.9668C172.518 21.786 172.299 21.5649 172.119 21.3037L171.84 21.4645C171.68 21.5649 171.481 21.5047 171.381 21.3439L171.341 21.2635C171.241 21.0827 171.301 20.8818 171.461 20.7813L171.74 20.6205C171.62 20.3392 171.541 20.0378 171.501 19.7163H171.162C170.982 19.7163 170.822 19.5757 170.822 19.3747V19.2944C170.822 19.1135 170.982 18.9528 171.162 18.9528H171.501C171.541 18.6313 171.62 18.3299 171.74 18.0485L171.461 17.8677C171.301 17.7672 171.241 17.5462 171.341 17.3855L171.381 17.3051C171.461 17.1443 171.68 17.084 171.84 17.1845L172.119 17.3654C172.319 17.1041 172.538 16.8831 172.777 16.7023L172.618 16.4009C172.518 16.22 172.578 16.0191 172.738 15.9186L172.817 15.8784C172.977 15.7981 173.177 15.8583 173.276 16.0191L173.436 16.3205C173.695 16.1999 173.994 16.1196 174.314 16.0794V15.7378C174.314 15.5368 174.473 15.3962 174.653 15.3962H174.733C174.912 15.3962 175.072 15.5569 175.072 15.7378V16.0794C175.371 16.1196 175.67 16.22 175.95 16.3406L176.109 16.0593C176.209 15.8985 176.408 15.8382 176.568 15.9387L176.648 15.9789C176.807 16.0593 176.867 16.2803 176.768 16.4411L176.608 16.7224C176.847 16.9032 177.067 17.1242 177.246 17.3855L177.526 17.2247C177.685 17.1443 177.885 17.2046 177.984 17.3654L178.024 17.4457C178.124 17.6065 178.064 17.8074 177.905 17.9079L177.625 18.0686ZM172.359 19.3144C172.359 20.6607 173.416 21.7458 174.713 21.7458C176.009 21.7458 177.047 20.6808 177.047 19.3546C177.047 18.0285 176.009 16.9434 174.713 16.9233C173.416 16.9032 172.359 17.9682 172.359 19.3144Z" fill="url(#paint7_linear_0_5477)"/>
<path opacity="0.15" fill-rule="evenodd" clip-rule="evenodd" d="M72.9272 34.445L73.7452 34.4249C74.204 34.4249 74.5831 34.7464 74.5631 35.0679V35.2487C74.5631 35.6506 74.1841 35.9922 73.7252 35.9922L72.9073 36.0123C72.8275 36.6754 72.628 37.3184 72.3287 37.9212L73.0469 38.2628C73.4459 38.4637 73.5856 38.8857 73.3462 39.2474L73.2464 39.4081C73.007 39.7698 72.4883 39.8904 72.0893 39.7095L71.3711 39.3679C70.9123 39.9105 70.3736 40.3927 69.7552 40.8147L70.1741 41.4175C70.3936 41.7591 70.2539 42.2011 69.8549 42.4222L69.6754 42.5226C69.2764 42.7236 68.7577 42.6231 68.5183 42.2815L68.0993 41.6787C67.3811 41.96 66.6429 42.1609 65.8449 42.2614V42.9848C65.8449 43.3867 65.4659 43.7282 64.9871 43.7483H64.7876C64.3088 43.7684 63.9297 43.4469 63.9297 43.0451V42.3217C63.1317 42.2815 62.3736 42.1208 61.6554 41.8796L61.2365 42.5226C60.9971 42.8843 60.4584 43.025 60.0395 42.824L59.8599 42.7437C59.441 42.5427 59.3013 42.1007 59.5407 41.739L59.9597 41.096C59.3213 40.7142 58.7427 40.252 58.2639 39.7296L57.5257 40.1114C57.0868 40.3324 56.5482 40.2119 56.3088 39.8703L56.209 39.7095C55.9497 39.3679 56.1093 38.9058 56.5282 38.6847L57.2664 38.303C56.9671 37.7001 56.7477 37.0571 56.6479 36.374L55.7901 36.3941C55.2913 36.4142 54.8923 36.0927 54.8923 35.6707V35.4898C54.8923 35.0679 55.2913 34.7263 55.7901 34.7263L56.6479 34.7062C56.7477 34.023 56.9472 33.38 57.2664 32.7571L56.5282 32.3954C56.1093 32.1945 55.9696 31.7524 56.209 31.3907L56.3088 31.23C56.5681 30.8683 57.1068 30.7477 57.5257 30.9487L58.2639 31.3104C58.7427 30.7678 59.3013 30.2655 59.9397 29.8636L59.5208 29.2407C59.2814 28.8991 59.421 28.437 59.84 28.236L60.0195 28.1356C60.4385 27.9346 60.9771 28.0351 61.2165 28.3968L61.6355 29.0197C62.3537 28.7384 63.1118 28.5575 63.9098 28.4772V27.7538C63.9098 27.3519 64.2888 27.0103 64.7676 27.0103H64.9671C65.4459 27.0103 65.825 27.3318 65.825 27.7337V28.4571C66.623 28.5374 67.3811 28.7183 68.0794 28.9594L68.4983 28.3365C68.7178 27.9748 69.2564 27.8542 69.6554 28.0552L69.835 28.1356C70.2539 28.3164 70.3936 28.7786 70.1542 29.1202L69.7352 29.7431C70.3537 30.1449 70.9123 30.6071 71.3711 31.1295L72.0893 30.7678C72.4883 30.5669 73.007 30.6875 73.2464 31.029L73.3462 31.1898C73.5856 31.5515 73.4459 31.9935 73.0469 32.1945L72.3287 32.5562C72.628 33.1389 72.8275 33.7819 72.9272 34.445ZM61.0769 35.4697C61.0769 37.2581 62.7926 38.6646 64.8873 38.6245C66.9621 38.5843 68.6579 37.1174 68.6579 35.3291C68.6579 33.5609 66.9821 32.1543 64.8873 32.1744C62.7926 32.2146 61.0769 33.6814 61.0769 35.4697Z" fill="url(#paint8_linear_0_5477)"/>
<path opacity="0.5" d="M163.78 45.6974L139.74 46.6619C138.882 46.7021 138.164 47.4054 138.164 48.2292C138.164 49.0531 138.862 49.6961 139.74 49.6559L163.78 48.5708C164.578 48.5306 165.216 47.8675 165.216 47.0638C165.216 46.26 164.578 45.6572 163.78 45.6974Z" fill="url(#paint9_linear_0_5477)"/>
<path d="M68.0379 17.1624L52.5858 66.2915C52.2482 67.3734 53.1022 68.4554 54.2145 68.3552L88.217 65.3899L72.6458 16.3209L68.0379 17.1624Z" fill="url(#paint10_linear_0_5477)"/>
<path d="M68.6139 17.1624L53.1618 66.2915C52.8242 67.3734 53.6782 68.4554 54.7904 68.3552L88.793 65.3899L73.2218 16.3209L68.6139 17.1624Z" fill="url(#paint11_linear_0_5477)"/>
<path d="M146.331 17.7234L69.6467 16.1806C68.5345 16.1606 67.7996 16.942 67.9982 17.9038L79.1404 73.8853C79.339 74.867 80.3718 75.6084 81.4642 75.5282L156.878 70.6794C157.732 70.6193 158.308 69.878 158.129 69.0164L148.238 19.3464C148.059 18.4447 147.205 17.7234 146.331 17.7234Z" fill="url(#paint12_linear_0_5477)"/>
<path d="M146.907 17.7234L70.2227 16.1806C69.1105 16.1606 68.3756 16.942 68.5742 17.9038L79.7164 73.8853C79.915 74.867 80.9478 75.6084 82.0402 75.5282L157.454 70.6794C158.308 70.6193 158.884 69.878 158.705 69.0164L148.814 19.3464C148.635 18.4447 147.781 17.7234 146.907 17.7234Z" fill="url(#paint13_linear_0_5477)"/>
<g opacity="0.15">
<path d="M126.033 47.798C111.058 40.4446 96.6581 46.2552 86.6083 36.8381C80.4314 31.0476 79.4582 22.8127 79.776 16.361L70.2028 16.1606C69.0906 16.1406 68.3557 16.922 68.5543 17.8837L79.6965 73.8652C79.8951 74.847 80.9279 75.5883 82.0203 75.5082L147.344 71.3006C140.492 57.3152 132.548 51.0038 126.033 47.798Z" fill="#97A6B7"/>
</g>
<path d="M154.852 68.776L83.5099 73.1439C82.3182 73.224 81.1663 72.4026 80.9478 71.3206L71.037 21.5103C70.8185 20.4283 71.6328 19.5668 72.8444 19.5868L145.279 20.7088C146.252 20.7289 147.205 21.5103 147.384 22.472L156.222 66.9326C156.441 67.8944 155.805 68.7159 154.852 68.776Z" fill="#D8DEE8"/>
<path d="M155.17 68.7559L83.9072 73.1038C82.7155 73.184 81.5635 72.3625 81.3451 71.2805L71.4343 21.5103C71.2158 20.4283 72.0301 19.5668 73.2416 19.5868L145.596 20.7088C146.57 20.7289 147.523 21.5103 147.702 22.472L156.54 66.8926C156.759 67.8743 156.143 68.6958 155.17 68.7559Z" fill="url(#paint14_linear_0_5477)"/>
<path d="M144.643 26.5795L77.194 26.1587L76.5783 23.0932L144.087 23.8145L144.643 26.5795Z" fill="url(#paint15_linear_0_5477)"/>
<g opacity="0.3">
<path d="M126.033 47.7979C111.058 40.4446 96.6581 46.2551 86.6083 36.8381C81.4642 32.0093 79.9349 25.4775 79.7362 19.707L73.1621 19.6068C71.9903 19.5868 71.2157 20.4083 71.4143 21.4502L81.345 71.3807C81.5436 72.4226 82.6559 73.204 83.8078 73.1239L146.331 69.2969C139.717 56.7141 132.23 50.8435 126.033 47.7979Z" fill="#D8DEE8"/>
</g>
<path fill-rule="evenodd" clip-rule="evenodd" d="M85.3173 68.5356C85.357 68.6758 85.4762 68.776 85.6152 68.776L98.8429 68.0347C98.9223 68.0347 99.0018 67.9745 99.0614 67.9144C99.1209 67.8543 99.1408 67.7541 99.1209 67.674L91.4743 29.2443C91.4346 29.1041 91.3154 29.0039 91.1764 29.0039L77.8296 28.9839C77.7303 28.9839 77.6508 29.0239 77.5913 29.1041C77.5317 29.1842 77.5118 29.2844 77.5317 29.3645L85.3173 68.5356ZM85.8536 68.1549L78.1871 29.625L90.9182 29.6451L98.4457 67.4736L85.8536 68.1549Z" fill="#D8DEE8"/>
<path fill-rule="evenodd" clip-rule="evenodd" d="M100.074 67.7341C100.114 67.8744 100.233 67.9745 100.372 67.9745L113.044 67.2733C113.123 67.2733 113.203 67.2132 113.262 67.1531C113.322 67.0929 113.342 66.9928 113.322 66.9126L105.834 29.2844C105.794 29.1441 105.675 29.044 105.536 29.044L92.7454 29.0239C92.6461 29.0239 92.5667 29.064 92.5071 29.1441C92.4475 29.2243 92.4277 29.3245 92.4475 29.4046L100.074 67.7341ZM100.63 67.3534L93.1228 29.6451L105.298 29.6651L112.666 66.6922L100.63 67.3534Z" fill="#D8DEE8"/>
<path fill-rule="evenodd" clip-rule="evenodd" d="M114.216 66.9727C114.255 67.113 114.374 67.2132 114.513 67.2132L126.669 66.5319C126.748 66.5319 126.827 66.4718 126.887 66.4117C126.947 66.3516 126.967 66.2514 126.947 66.1713L119.618 29.3245C119.578 29.1842 119.459 29.084 119.32 29.084L107.046 29.064C106.946 29.064 106.867 29.1041 106.807 29.1842C106.748 29.2644 106.728 29.3645 106.748 29.4447L114.216 66.9727ZM114.772 66.572L107.423 29.6651L119.082 29.6851L126.291 65.9509L114.772 66.572Z" fill="#D8DEE8"/>
<path fill-rule="evenodd" clip-rule="evenodd" d="M127.781 66.2314C127.821 66.3716 127.94 66.4718 128.079 66.4718L139.757 65.8306C139.837 65.8306 139.916 65.7705 139.976 65.7104C140.035 65.6503 140.055 65.5501 140.035 65.47L132.845 29.3445C132.806 29.2042 132.687 29.1041 132.548 29.1041L120.77 29.084C120.67 29.084 120.591 29.1241 120.531 29.2042C120.472 29.2844 120.452 29.3846 120.472 29.4647L127.781 66.2314ZM128.317 65.8306L121.127 29.6851L132.289 29.7051L139.36 65.2295L128.317 65.8306Z" fill="#D8DEE8"/>
<path fill-rule="evenodd" clip-rule="evenodd" d="M140.81 65.5101C140.85 65.6503 140.969 65.7505 141.108 65.7505L152.329 65.1093C152.409 65.1093 152.488 65.0492 152.548 64.9891C152.607 64.929 152.627 64.8288 152.607 64.7487L145.557 29.3445C145.517 29.2042 145.398 29.1041 145.259 29.1041L133.938 29.084C133.839 29.084 133.759 29.1241 133.699 29.2042C133.64 29.2844 133.62 29.3846 133.64 29.4647L140.81 65.5101ZM141.366 65.1294L134.315 29.7252H145.02L151.952 64.5483L141.366 65.1294Z" fill="#D8DEE8"/>
<path opacity="0.15" d="M91.0175 34.5539L80.1136 34.614L79.2993 30.5667H90.223L91.0175 34.5539Z" fill="url(#paint16_linear_0_5477)"/>
<path opacity="0.15" d="M105.397 34.4738L94.9699 34.5339L94.1755 30.5667H104.623L105.397 34.4738Z" fill="url(#paint17_linear_0_5477)"/>
<path opacity="0.5" d="M98.108 41.6268L96.38 41.6668L95.4863 37.1987L97.2142 37.1787L98.108 41.6268Z" fill="url(#paint18_linear_0_5477)"/>
<path opacity="0.5" d="M100.293 41.5867L98.5847 41.6268L97.4128 35.7561L99.1209 35.7361L100.293 41.5867Z" fill="url(#paint19_linear_0_5477)"/>
<path opacity="0.5" d="M102.477 41.5667L100.769 41.5867L100.015 37.8199L101.723 37.7998L102.477 41.5667Z" fill="url(#paint20_linear_0_5477)"/>
<path opacity="0.5" d="M104.623 41.5266L102.934 41.5466L102.378 38.7015L104.066 38.6814L104.623 41.5266Z" fill="url(#paint21_linear_0_5477)"/>
<path opacity="0.5" d="M106.768 41.4865L105.099 41.5066L104.047 36.217L105.715 36.1969L106.768 41.4865Z" fill="url(#paint22_linear_0_5477)"/>
<path opacity="0.15" d="M119.221 34.3936L109.191 34.4538L108.416 30.5667H118.446L119.221 34.3936Z" fill="url(#paint23_linear_0_5477)"/>
<path d="M122.1 48.8999L112.13 49.1804L110.501 40.9856L120.492 40.8453L122.1 48.8999Z" fill="url(#paint24_linear_0_5477)"/>
<path opacity="0.15" d="M132.468 34.3135L122.855 34.3736L122.081 30.5667H131.713L132.468 34.3135Z" fill="url(#paint25_linear_0_5477)"/>
<path d="M133.719 40.6249L124.126 40.7852L123.173 35.9765L132.786 35.8964L133.719 40.6249Z" fill="url(#paint26_linear_0_5477)"/>
<path opacity="0.15" d="M145.199 34.2334L135.964 34.2935L135.209 30.5667H144.464L145.199 34.2334Z" fill="url(#paint27_linear_0_5477)"/>
<path opacity="0.15" d="M148.655 51.6048L139.459 51.9054L139.102 50.0821L148.298 49.8016L148.655 51.6048Z" fill="url(#paint28_linear_0_5477)"/>
<path opacity="0.15" d="M149.152 54.1294L139.976 54.47L139.618 52.6467L148.794 52.3462L149.152 54.1294Z" fill="url(#paint29_linear_0_5477)"/>
<path opacity="0.15" d="M149.668 56.654L140.472 57.0347L140.115 55.2114L149.31 54.8708L149.668 56.654Z" fill="url(#paint30_linear_0_5477)"/>
<path opacity="0.5" d="M130.902 3.96195L107.602 3.30621C106.813 3.28506 106.186 3.91964 106.186 4.74461V12.5289C106.186 13.3327 106.834 14.0096 107.602 14.0307L130.902 14.4961C131.651 14.5172 132.278 13.8827 132.278 13.0788V5.44265C132.278 4.63884 131.651 3.9831 130.902 3.96195Z" fill="url(#paint31_linear_0_5477)"/>
<path opacity="0.5" d="M107.602 13.0154C107.359 13.0154 107.157 12.8038 107.157 12.55V4.76574C107.157 4.51191 107.359 4.32153 107.602 4.32153L130.902 4.95612C131.145 4.95612 131.327 5.16765 131.327 5.42148V13.0577C131.327 13.3115 131.145 13.5019 130.902 13.5019L107.602 13.0154Z" fill="url(#paint32_linear_0_5477)"/>
<path opacity="0.61" d="M114.236 5.20996L108.512 5.06189C108.229 5.06189 107.986 5.29457 107.986 5.59071V11.5347C107.986 11.8308 108.209 12.0635 108.512 12.0847L114.236 12.2116C114.519 12.2116 114.742 11.9789 114.742 11.6827V5.75994C114.742 5.44264 114.499 5.20996 114.236 5.20996Z" fill="white"/>
<path d="M129.931 8.23484L116.683 7.8964V7.1772L129.931 7.51565V8.23484Z" fill="white"/>
<path d="M129.931 9.41941L116.683 9.10212V8.40407L129.931 8.72136V9.41941Z" fill="white"/>
<path d="M124.309 10.4982L116.683 10.3078V9.60977L124.309 9.80015V10.4982Z" fill="white"/>
<path opacity="0.5" d="M150.979 14.9708L133.937 14.6193C133.346 14.5974 132.869 15.1246 132.869 15.7836V22.0004C132.869 22.6594 133.346 23.1867 133.937 23.1867H150.979C151.512 23.1867 151.951 22.6814 151.951 22.0663V16.1131C151.951 15.4761 151.512 14.9708 150.979 14.9708Z" fill="url(#paint33_linear_0_5477)"/>
<path opacity="0.5" d="M133.956 22.3519C133.765 22.3519 133.632 22.1981 133.632 21.9785V15.7617C133.632 15.564 133.784 15.4102 133.956 15.4102L150.998 15.7397C151.169 15.7397 151.303 15.8935 151.303 16.0912V22.0444C151.303 22.2421 151.169 22.3958 150.998 22.3958L133.956 22.3519Z" fill="url(#paint34_linear_0_5477)"/>
<path opacity="0.61" d="M138.874 16.0692L134.623 16.0033C134.413 16.0033 134.242 16.179 134.242 16.4207V21.1657C134.242 21.4073 134.413 21.583 134.623 21.583L138.874 21.605C139.084 21.605 139.255 21.4293 139.255 21.1876V16.5085C139.255 16.2669 139.084 16.0692 138.874 16.0692Z" fill="white"/>
<path d="M150.292 18.2879L140.685 18.1781V17.6069L150.292 17.7387V18.2879Z" fill="white"/>
<path d="M150.292 19.2325L140.685 19.1227V18.5735L150.292 18.6833V19.2325Z" fill="white"/>
<path d="M146.232 20.1332L140.685 20.0892V19.5181L146.232 19.584V20.1332Z" fill="white"/>
<path d="M99.8892 37.6383C99.7348 37.6383 99.6025 37.5195 99.6025 37.381V8.18953C99.6025 8.11037 99.6246 8.051 99.6907 8.01141C99.7569 7.97183 99.823 7.93225 99.8892 7.93225L106.306 8.13016C106.46 8.13016 106.592 8.2489 106.592 8.38744C106.592 8.52598 106.46 8.64472 106.306 8.64472L100.176 8.4666V37.4008C100.176 37.5393 100.066 37.6383 99.8892 37.6383Z" fill="white"/>
<path d="M127.896 39.3857C127.871 39.3857 127.871 39.3857 127.845 39.3857C127.666 39.3662 127.539 39.2495 127.564 39.1133C127.59 38.7048 127.564 26.7399 127.564 20.4365C127.564 20.3587 127.59 20.3003 127.666 20.242C127.743 20.2031 127.82 20.1642 127.922 20.1642L131.621 20.3587C131.799 20.3587 131.952 20.4949 131.927 20.6311C131.927 20.7673 131.748 20.884 131.57 20.8645L128.228 20.6894C128.228 25.3197 128.253 38.9382 128.228 39.1522C128.202 39.3079 128.075 39.3857 127.896 39.3857Z" fill="white"/>
<path d="M80.918 6.81931C81.4452 6.65865 82.1752 7.64267 82.7632 8.44594C83.6555 9.65086 84.6896 11.0566 84.4057 12.7635C84.1218 14.4303 82.6821 15.7357 82.2766 15.5348C81.9318 15.3742 82.601 14.2496 82.0738 12.7635C81.648 11.5586 80.9585 11.5586 80.4921 10.3738C79.9243 8.88774 80.2488 7.02013 80.918 6.81931Z" fill="url(#paint35_linear_0_5477)"/>
<path d="M81.1816 14.5107C83.9394 15.1734 85.7441 16.2377 86.7985 16.9807C87.3663 17.3824 87.6299 17.6434 87.7719 18.0049C88.583 20.1135 84.4057 23.3065 83.9596 23.6278C83.7569 23.186 83.5744 22.7241 83.3716 22.2823C83.7974 19.9328 84.5274 19.1897 85.1357 18.9688C85.298 18.9086 85.5819 18.8483 85.5819 18.768C85.5616 18.5873 83.9799 18.8483 82.4591 18.3061C80.9382 17.7639 79.4174 16.3582 79.7013 15.4545C79.7419 15.2738 79.9446 14.7918 81.1816 14.5107Z" fill="url(#paint36_linear_0_5477)"/>
<path d="M83.8379 29.9135C83.8379 29.9135 83.5743 30.0139 83.5743 30.1946C83.5743 30.3954 83.8379 31.279 84.1218 31.6003C84.4057 31.9216 84.426 31.4397 84.4057 31.1385C84.3854 30.8372 84.3043 30.1544 84.2435 30.0339C84.1827 29.9135 83.8379 29.9135 83.8379 29.9135Z" fill="url(#paint37_linear_0_5477)"/>
<path opacity="0.3" d="M84.6694 17.5832C85.1763 17.5832 86.3322 17.4828 86.6566 18.0451C86.9202 18.527 86.4538 19.25 86.1902 19.6918C85.4196 20.8967 84.6896 21.0373 84.1624 21.7803C83.9596 22.0615 83.7771 22.4631 83.7163 23.0455C83.6149 22.7844 83.4933 22.5434 83.3919 22.2824C83.8177 19.9328 84.5477 19.1897 85.156 18.9688C85.3183 18.9086 85.6021 18.8484 85.6021 18.768C85.5819 18.5873 84.0002 18.8484 82.4794 18.3061C81.1005 17.8041 79.7216 16.5992 79.681 15.6955C81.8508 17.2619 83.4933 17.6033 84.6694 17.5832Z" fill="url(#paint38_linear_0_5477)"/>
<path d="M83.696 29.07C83.7163 29.3712 83.7366 29.6323 83.7568 29.8331C83.8177 30.2548 83.8582 30.4356 83.9191 30.5762C83.9799 30.7167 84.1218 30.9979 84.1827 30.9778C84.2435 30.9577 84.1827 30.6364 84.1218 29.7327C84.1218 29.6122 84.0813 29.1905 84.0813 29.1905L83.696 29.07Z" fill="url(#paint39_linear_0_5477)"/>
<path d="M79.5999 14.6713C81.1816 15.6152 82.2158 16.6996 82.8038 17.4225C83.5136 18.2861 84.5883 19.5914 84.9736 21.5393C85.1763 22.5836 85.0749 23.5074 84.8722 25.3348C84.6694 27.1422 84.3652 28.6081 84.1219 29.6122C84.0002 29.6524 83.8786 29.7127 83.7569 29.7528C83.4324 29.1504 83.0066 28.2266 82.8444 27.0217C82.601 25.0537 83.3311 24.4311 82.9863 23.0254C82.6822 21.8205 81.7899 21.0774 79.9852 19.5914C78.5049 18.3664 77.1666 17.6434 76.6597 16.1373C76.5785 15.8762 76.4974 15.5549 76.6394 15.2738C76.9233 14.6512 78.0791 14.4303 79.5999 14.6713Z" fill="url(#paint40_linear_0_5477)"/>
<path d="M78.0385 6.73897C78.4441 6.65864 79.1335 6.67872 79.7621 6.15659C79.9649 5.99594 80.6544 5.47381 80.553 4.7107C80.4719 4.02791 79.823 3.66644 79.7621 3.62628C79.2957 3.38529 78.8496 3.42546 78.3427 3.50579C77.6938 3.58611 77.4707 3.76685 77.0044 3.88734C75.8688 4.18857 75.5038 3.56603 74.348 3.60619C72.888 3.66644 72.7663 4.73078 71.5496 4.77094C70.1707 4.79103 69.9071 3.46562 68.5688 3.24472C66.683 2.92341 63.8441 4.9316 63.9049 7.24102C63.9454 8.56642 64.9391 10.1127 66.2166 10.5545C66.9668 10.8156 67.778 10.7353 68.001 11.2172C68.1632 11.5586 67.7982 11.8197 67.8388 12.4221C67.8793 13.1853 68.5485 13.7275 68.6702 13.8279C69.6638 14.6311 71.9146 14.2295 73.4557 13.0848C76.2338 11.0365 75.808 7.22093 78.0385 6.73897Z" fill="url(#paint41_linear_0_5477)"/>
<path d="M75.1388 6.65865C76.0716 6.53816 77.1463 6.45783 78.3427 6.43775C80.8571 6.39759 81.2221 6.7189 81.3235 6.95988C81.506 7.40168 81.2019 7.62258 81.3641 8.3857C81.4655 8.84758 81.3641 9.0484 81.5669 9.53036C81.7494 10.0123 81.6074 10.2734 81.4452 11.3779C81.2221 12.8037 81.141 13.5467 81.5466 14.109C81.8305 14.5107 82.1346 14.5508 82.1144 14.7316C82.0535 15.1332 80.6341 14.9123 78.8496 15.6955C78.3224 15.9164 77.856 16.1975 77.4505 16.4385C76.5177 16.9807 76.3352 17.2016 75.9093 17.4426C74.5305 18.2258 72.4621 18.3061 71.3874 17.3623C70.9818 17.0008 70.6979 16.4988 70.8196 16.298C71.0021 16.0369 71.8132 16.6193 72.5432 16.2779C73.0299 16.0369 72.9488 15.6553 73.4963 15.2135C74.1857 14.6713 74.6521 14.9525 75.1185 14.591C75.8485 14.0488 75.5038 12.7234 75.301 10.4943C75.1996 9.57053 75.1185 8.2652 75.1388 6.65865Z" fill="url(#paint42_linear_0_5477)"/>
<path d="M77.8763 6.13651C77.5316 6.35741 76.9841 6.61847 76.9232 6.6988C76.8624 6.77913 78.6063 7.06027 79.7013 6.51806C79.7013 6.51806 79.8635 6.41765 79.2146 6.29716C79.0727 6.27708 79.093 5.99593 79.1132 5.71479L78.9713 5.49389C78.9713 5.49389 78.221 5.93569 77.8763 6.13651Z" fill="url(#paint43_linear_0_5477)"/>
<path d="M78.8496 5.23283C78.8496 5.23283 78.7077 5.81521 79.2349 6.09635C79.7013 6.35742 80.4718 5.31316 80.3299 4.91152C80.2893 4.79103 80.1068 4.6103 79.9243 4.55005C79.8027 4.50989 79.316 4.52997 79.1132 4.93161C79.0524 4.81111 78.9713 4.75087 78.8902 4.77095C78.8091 4.79103 78.7888 4.95169 78.7888 4.97177C78.7685 5.11234 78.8293 5.19267 78.8496 5.23283Z" fill="url(#paint44_linear_0_5477)"/>
<path opacity="0.3" d="M79.5188 14.4303C78.9916 14.6512 78.9307 15.1131 78.2007 15.3742C77.5113 15.6152 77.2882 15.3139 76.5988 15.5148C75.5646 15.816 75.1793 16.8 75.0171 16.7197C74.8752 16.6393 75.0171 15.6955 75.666 15.093C76.4163 14.3902 77.2477 14.7115 77.7343 13.9885C77.9168 13.7074 78.0588 13.2656 77.8966 12.9041C77.6735 12.4422 77.0855 12.6029 76.7813 12.2012C76.2338 11.4984 77.5316 10.2332 77.1666 9.16888C77.0246 8.74716 76.5785 8.20495 75.1185 7.86356C75.1388 8.9279 75.1996 9.83158 75.2605 10.4943C75.4632 12.7033 75.7877 14.0287 75.078 14.591C74.6116 14.9525 74.1452 14.6512 73.4557 15.2135C72.888 15.6754 72.9893 16.057 72.5027 16.2779C71.7727 16.6393 70.9616 16.057 70.7791 16.2979C70.6371 16.4787 70.9413 17.0008 71.3468 17.3623C72.4216 18.3061 74.4899 18.2258 75.8688 17.4426C76.2946 17.2016 76.4771 16.9807 77.4099 16.4385C77.8155 16.1975 78.2818 15.9365 78.8091 15.6955C80.0663 15.1533 81.141 15.093 81.6885 14.9725C80.6138 14.2697 79.9446 14.2496 79.5188 14.4303Z" fill="url(#paint45_linear_0_5477)"/>
<path d="M84.0408 15.3541L78.3224 15.6352C78.2413 15.6352 78.1805 15.6754 78.1399 15.7557L77.9777 16.0168C77.8966 16.1373 77.998 16.2979 78.1399 16.2979L84.1827 16.077L84.0408 15.3541Z" fill="url(#paint46_linear_0_5477)"/>
<path d="M89.9619 12.2012L84.0611 12.3217C83.8786 12.3217 83.7366 12.4221 83.6352 12.5627L81.5872 16.1172L87.8124 15.8762C87.9747 15.8762 88.1369 15.7758 88.218 15.6352L90.1038 12.5025C90.2255 12.3619 90.1241 12.2012 89.9619 12.2012Z" fill="url(#paint47_linear_0_5477)"/>
<path opacity="0.3" d="M83.6555 12.5627C83.7366 12.4221 83.8988 12.3217 84.0813 12.3217H84.203C84.2232 12.5025 84.2841 12.6832 84.4057 12.8238C84.7707 13.2656 85.3791 12.9844 85.8252 13.4463C86.3118 13.9483 85.8657 14.5508 86.3118 15.0328C86.7782 15.5348 87.5285 15.1332 88.4005 15.4344L88.2788 15.6352C88.1977 15.7758 88.0355 15.8762 87.8732 15.8762L81.6479 16.1172L83.6555 12.5627Z" fill="url(#paint48_linear_0_5477)"/>
<path d="M79.0321 15.1533C79.1132 14.9524 79.1741 14.7717 79.2552 14.5709C78.4441 14.35 77.2882 14.0086 76.1324 13.607C75.8485 13.5066 75.7471 13.366 75.666 13.2656C75.078 12.4824 76.5988 11.0967 76.5582 9.30944C76.538 8.06436 75.7674 6.63855 75.0982 6.61847C73.7396 6.5783 70.7182 12.3217 73.253 14.7717C74.5305 15.9967 76.8827 16.1373 79.0321 15.1533Z" fill="url(#paint49_linear_0_5477)"/>
<path d="M79.2552 14.5709C79.7622 14.2898 80.3908 14.5709 80.4313 14.591C80.553 14.6512 80.7152 14.7316 80.8774 14.9123C80.8977 14.9324 81.1208 15.2537 81.0397 15.334C80.9788 15.4143 80.7152 15.3541 80.411 15.1533C80.2894 15.1332 80.0866 15.1131 79.8635 15.1332C79.4377 15.1734 79.2552 15.2939 79.1133 15.1934C79.0119 15.1131 78.9713 14.9324 79.0119 14.8119C79.0322 14.6914 79.1741 14.6111 79.2552 14.5709Z" fill="url(#paint50_linear_0_5477)"/>
<path opacity="0.5" d="M165.748 28.7158L140.939 28.3672C139.957 28.3467 139.175 29.1054 139.175 30.0691V39.1735C139.175 40.1167 139.977 40.8754 140.939 40.8754L165.748 40.6089C166.63 40.6089 167.331 39.8707 167.331 38.9684V30.3767C167.331 29.4745 166.63 28.7363 165.748 28.7158Z" fill="url(#paint51_linear_0_5477)"/>
<path opacity="0.5" d="M140.939 39.6861C140.638 39.6861 140.398 39.4606 140.398 39.153V30.0691C140.398 29.782 140.638 29.536 140.939 29.5565L165.748 29.8435C166.028 29.8435 166.249 30.0691 166.249 30.3562V38.9684C166.249 39.2555 166.028 39.4811 165.748 39.4811L140.939 39.6861Z" fill="url(#paint52_linear_0_5477)"/>
<path opacity="0.61" d="M149.075 30.4382L142.061 30.3562C141.7 30.3562 141.42 30.6228 141.42 30.9714V37.9022C141.42 38.2508 141.7 38.5173 142.061 38.5173L149.075 38.4763C149.416 38.4763 149.696 38.1892 149.696 37.8612V31.0534C149.696 30.7253 149.416 30.4587 149.075 30.4382Z" fill="white"/>
<path d="M164.626 33.555L152.041 33.4935V32.6733L164.626 32.7553V33.555Z" fill="white"/>
<path d="M164.626 34.9084L152.041 34.8879V34.0676L164.626 34.1087V34.9084Z" fill="white"/>
<path d="M152.042 35.869L161.1 35.8566V35.8566L152.042 35.869V35.869Z" fill="white"/>
<path d="M148.093 29.6795C146.991 31.4225 146.51 33.2885 145.808 35.216C145.688 35.5235 145.468 36.4873 144.967 36.3232C144.726 36.2412 144.446 35.5851 144.346 35.38C144.065 34.8469 143.825 34.1907 143.364 33.7601C143.183 33.596 142.883 33.7601 142.943 34.0061C143.203 34.9699 144.085 38.0252 145.648 37.205C146.63 36.6923 148.714 31.443 148.814 29.8846C148.854 29.495 148.293 29.3719 148.093 29.6795Z" fill="white"/>
<path d="M166.955 38.1497C166.8 38.3658 166.645 38.5818 166.49 38.7979C167.167 39.3085 167.98 40.0942 167.96 41.0566C167.941 42.4904 166.045 42.9617 165.929 44.4348C165.813 45.9275 167.554 47.7541 168.695 47.5381C170.146 47.2434 171.442 43.4724 170.088 40.7816C169.237 39.0532 167.574 38.3658 166.955 38.1497Z" fill="url(#paint53_linear_0_5477)"/>
<path opacity="0.3" d="M166.954 38.1497C166.974 38.3461 167.013 38.6604 167.225 38.8961C167.515 39.2496 167.883 39.1907 168.25 39.3675C168.986 39.7406 169.353 40.9387 169.179 41.9011C168.986 42.8832 168.27 43.4528 168.076 43.5902C167.071 44.3366 166.2 43.9634 165.949 44.4348C165.523 45.2401 167.38 47.7934 168.715 47.5381C170.165 47.2434 171.461 43.4724 170.107 40.7816C169.237 39.0532 167.573 38.3658 166.954 38.1497Z" fill="url(#paint54_linear_0_5477)"/>
<path d="M166.858 38.7193C166.858 38.7193 166.355 38.5425 166.219 38.3658C166.084 38.189 166.2 37.5998 166.2 37.1284C166.2 36.657 166.413 37.3444 166.471 37.5016C166.529 37.6587 166.49 38.0122 166.858 38.3068V38.7193Z" fill="url(#paint55_linear_0_5477)"/>
<path d="M165.697 41.6261C165.523 41.2726 165.446 41.2726 165.407 41.0762C165.31 40.6441 165.562 40.0941 165.794 40.0941C165.929 40.0941 165.949 40.3102 166.258 40.6637C166.626 41.0958 166.858 41.0369 167.071 41.4101C167.129 41.4886 167.341 41.8815 167.206 42.1761C167.032 42.5493 166.316 42.6082 166.026 42.3136C165.852 42.1761 165.91 42.0582 165.697 41.6261Z" fill="url(#paint56_linear_0_5477)"/>
<path d="M166.219 41.9993C166.219 41.9993 166.084 42.6868 166.181 43.2367C166.258 43.7474 167.187 44.258 167.361 44.4152C167.535 44.5723 166.896 44.7294 166.297 44.6508C165.717 44.5723 164.092 44.042 163.86 43.7474C163.608 43.4527 164.15 43.5902 164.595 43.551C165.04 43.492 165.465 42.7457 165.484 42.3529C165.484 41.9797 166.219 41.9993 166.219 41.9993Z" fill="url(#paint57_linear_0_5477)"/>
<path d="M166.026 42.51C166.026 42.51 165.581 42.7064 165.175 42.3922C164.827 42.0975 165.349 41.2137 165.717 41.1941C165.833 41.1941 166.007 41.2726 166.123 41.4101C166.181 41.4887 166.181 41.528 166.297 41.6654C166.394 41.7833 166.432 41.7833 166.452 41.8422C166.471 41.9011 166.432 42.019 166.2 42.2154C166.316 42.1957 166.432 42.235 166.471 42.294C166.471 42.3136 166.49 42.3332 166.49 42.3725C166.452 42.5296 166.277 42.5886 166.026 42.51Z" fill="url(#paint58_linear_0_5477)"/>
<path d="M152.892 40.5656C152.892 40.5656 152.621 40.6245 152.525 40.0942C152.447 39.6817 152.351 39.5639 152.292 39.6621C152.234 39.7603 152.292 39.996 152.292 39.996C152.292 39.996 151.867 39.8192 151.596 39.5049C151.325 39.171 151.345 39.5246 151.383 39.721C151.422 39.9174 151.848 40.4281 152.002 40.487C152.176 40.5459 152.525 40.9584 152.525 40.9584L152.892 40.5656Z" fill="url(#paint59_linear_0_5477)"/>
<path d="M161.693 69.8894C161.829 70.184 161.79 70.3018 161.751 70.3607C161.654 70.5179 161.403 70.3607 160.765 70.4393C160.687 70.4393 160.552 70.4589 160.359 70.4197C160.204 70.3804 160.03 70.3018 160.03 70.2625C160.03 70.2429 160.068 70.2429 160.068 70.2429C160.242 70.2036 161.364 69.8501 161.364 69.8501L161.693 69.8894Z" fill="url(#paint60_linear_0_5477)"/>
<path d="M161.945 69.3001L161.751 69.8108C161.713 69.8894 161.654 69.9483 161.577 69.9483C161.5 69.9483 161.403 69.9286 161.384 69.7912C161.364 69.6144 161.461 69.1627 161.461 69.1627L161.945 69.3001Z" fill="url(#paint61_linear_0_5477)"/>
<path d="M169.45 68.4359L169.721 69.1823L170.107 69.1234L170.03 68.4359H169.45Z" fill="url(#paint62_linear_0_5477)"/>
<path d="M169.837 69.5947C170.03 69.3591 170.204 69.3787 170.223 69.2216C170.243 69.1037 170.185 68.9466 170.069 68.8877C169.914 68.8091 169.721 68.927 169.682 68.9662C169.392 69.1626 169.469 69.4573 169.198 69.5947C169.14 69.6144 169.063 69.6537 168.966 69.7322C168.927 69.7715 168.831 69.8697 168.85 69.9286C168.869 70.0072 169.044 70.0072 169.218 70.0072C169.411 70.0072 169.508 70.0072 169.604 69.9483C169.74 69.8697 169.701 69.7715 169.837 69.5947Z" fill="url(#paint63_linear_0_5477)"/>
<path d="M168.831 52.8214C169.063 54.3141 169.102 55.6301 169.082 56.7103C169.044 57.8691 168.947 58.0852 169.024 58.8708C169.179 60.5796 169.74 60.7171 170.185 62.6026C170.668 64.6845 170.417 66.4522 170.32 67.1396C170.223 67.7289 170.107 68.2199 170.03 68.5538C169.875 68.7502 169.566 68.7502 169.256 68.7502C168.792 66.8647 168.328 65.097 167.883 63.2115C166.993 60.4028 166.123 57.6138 165.233 54.8052C166.432 54.1374 167.632 53.4696 168.831 52.8214Z" fill="url(#paint64_linear_0_5477)"/>
<path opacity="0.3" d="M169.256 68.7502C168.792 66.8647 168.328 65.097 167.883 63.2115C166.993 60.4028 166.123 57.6138 165.233 54.8052C166.432 54.1374 167.632 53.4696 168.85 52.8214C168.869 52.9196 168.869 53.0179 168.889 53.1161C167.38 55.0409 167.245 56.3568 167.419 57.2014C167.632 58.2423 168.289 58.6548 168.444 60.1671C168.56 61.267 168.27 61.5027 168.444 62.4847C168.676 63.7418 169.334 64.331 169.721 65.0184C170.088 65.6666 170.359 66.6486 170.146 68.1413C170.107 68.2984 170.069 68.4359 170.049 68.5538C169.875 68.7502 169.566 68.7502 169.256 68.7502Z" fill="url(#paint65_linear_0_5477)"/>
<path d="M166.742 54.6284C166.722 55.3551 166.587 56.4354 166.142 57.6531C165.523 59.2833 164.846 59.6761 164.575 61.0313C164.285 62.4455 164.827 63.015 164.846 64.3113C164.865 65.5291 164.44 67.2771 162.351 69.4769C162.003 69.4376 161.674 69.418 161.326 69.3787C161.596 68.3181 161.964 66.6682 162.138 64.606C162.235 63.565 162.235 62.8186 162.254 62.524C162.293 60.8153 162.525 57.8888 163.434 52.625C164.537 53.2928 165.639 53.9606 166.742 54.6284Z" fill="url(#paint66_linear_0_5477)"/>
<path d="M152.273 40.7619C152.486 40.6441 152.699 40.5066 152.911 40.3888C155.291 42.7653 157.38 43.4331 158.83 43.5902C161.036 43.8259 162.583 42.9224 165.523 43.5313C166.452 43.7277 168.076 44.1009 168.966 45.4365C169.198 45.79 169.295 46.065 169.682 48.579C170.185 51.8197 170.204 52.3893 170.127 53.0768C169.991 54.3534 169.914 55.1194 169.334 55.8068C167.806 57.6138 164.537 56.6907 164.111 56.5728C163.357 56.3371 162.177 55.9836 161.713 54.9819C161.364 54.2356 161.732 53.7838 161.848 52.3108C161.906 51.5644 162.08 49.2664 161.016 47.8916C160.242 46.9095 159.159 46.8506 158.115 46.5167C156.471 45.9864 154.323 44.5919 152.273 40.7619Z" fill="url(#paint67_linear_0_5477)"/>
<g opacity="0.3">
<path d="M167.98 54.9623C167.09 54.1374 166.548 54.3927 166.007 53.7446C164.749 52.2322 166.626 49.7575 165.523 48.5594C164.633 47.597 162.931 48.6772 161.964 47.538C161.326 46.7917 161.906 46.1239 161.326 45.3383C160.417 44.1009 158.386 44.9847 155.736 44.2187C155.117 44.042 154.556 43.7866 154.072 43.5313C155.523 45.3383 156.954 46.1435 158.134 46.5167C159.198 46.8506 160.262 46.9095 161.036 47.8916C162.119 49.2664 161.925 51.5644 161.867 52.3108C161.751 53.7838 161.384 54.2159 161.732 54.9819C162.196 56.0033 163.376 56.3568 164.13 56.5728C164.498 56.6907 167.264 57.4763 168.908 56.2193C168.715 55.7872 168.405 55.3355 167.98 54.9623Z" fill="url(#paint68_linear_0_5477)"/>
</g>
<path d="M137.7 55.8857L137.36 56.5014C137.28 56.6007 137.14 56.7596 136.981 56.9185C136.561 57.3356 136.161 57.5541 135.762 57.7726C135.462 57.9514 135.042 58.15 134.523 58.3486C136.561 57.8123 137.88 57.9712 138.719 58.2294C138.979 58.3089 139.618 58.5274 139.678 58.4281C139.718 58.3486 139.318 57.9315 138.819 57.7527C138.579 57.6733 138.359 57.6534 138.179 57.4548C138.08 57.3555 138.02 57.2363 137.98 57.0973C137.88 56.7398 138.279 56.2432 138.279 56.2432L137.7 55.8857Z" fill="url(#paint69_linear_0_5477)"/>
<path d="M137.78 57.0576C137.88 57.0377 138.559 57.2165 138.799 56.8987C139.119 56.4617 138.919 55.7268 138.899 55.6076C138.839 55.1309 138.799 55.0515 138.719 54.9522L138.599 54.8131C138.599 54.8131 138.599 54.8131 138.579 54.7933C138.499 54.7337 138.179 54.5947 138.12 54.5947C137.9 54.5549 137.38 55.3097 137.001 56.5014C136.981 56.5411 136.941 56.5809 136.921 56.6206C136.861 56.7398 137.78 57.0973 137.78 57.0576Z" fill="url(#paint70_linear_0_5477)"/>
<path d="M139.318 54.9919C139.159 55.1905 138.759 55.2898 138.599 55.3296C138.579 55.3296 138.499 55.3693 138.419 55.4289C138.399 55.4289 138.399 55.4487 138.379 55.4686C138.219 55.6672 138.479 56.0644 138.379 56.1439C138.299 56.2035 138.08 56.0049 138.04 56.0644C137.98 56.124 138.159 56.3227 138.1 56.3822C138.06 56.422 137.94 56.3227 137.84 56.3822C137.78 56.4021 137.78 56.4418 137.7 56.561C137.64 56.6206 137.58 56.7 137.54 56.7199C137.34 56.8788 136.941 56.8391 136.901 56.7199C136.881 56.6802 136.921 56.6802 136.921 56.5809C136.921 56.5809 136.921 56.561 136.921 56.5213C136.921 56.5213 136.921 56.4418 136.901 56.3822C136.881 56.2631 136.221 56.1836 136.141 55.9453C136.081 55.7467 136.321 55.2501 136.321 55.1905V55.1707C136.321 55.1508 136.321 55.1508 136.321 55.1309C136.341 54.8727 136.801 54.5947 136.801 54.5947C137.44 54.1974 137.32 53.9193 137.76 53.7604C138.399 53.542 139.298 53.9193 139.418 54.4358C139.438 54.6145 139.438 54.833 139.318 54.9919Z" fill="#26264F"/>
<path d="M138.259 56.0247C138.219 55.8658 138.02 55.9254 137.96 56.0843C137.9 56.2432 138 56.4617 138.159 56.4816C138.299 56.5014 138.319 56.2233 138.259 56.0247Z" fill="url(#paint71_linear_0_5477)"/>
<path d="M131.766 78.5682L130.786 79.8989C130.786 79.8989 130.846 80.2366 131.326 80.3359L132.625 79.2236L131.766 78.5682Z" fill="url(#paint72_linear_0_5477)"/>
<path d="M131.286 79.7003C131.046 79.6804 130.627 79.6606 130.367 79.9386C130.147 80.1571 130.167 80.455 130.167 81.1701C130.167 82.6399 130.067 82.8385 130.167 82.8782C130.467 82.9974 131.606 81.5872 131.406 80.177C131.386 79.9784 131.326 79.8195 131.286 79.7003Z" fill="url(#paint73_linear_0_5477)"/>
<path d="M113.183 85.9568L115.721 85.6589C115.881 85.639 115.921 85.4404 115.801 85.361C115.681 85.2815 115.501 85.2021 115.301 85.2418C114.822 85.3411 113.683 84.7651 113.203 84.9637C113.043 85.0233 112.943 85.4205 112.903 85.5199C112.763 85.7185 112.943 85.9767 113.183 85.9568Z" fill="url(#paint74_linear_0_5477)"/>
<path d="M114.142 83.911L113.183 84.9637C113.183 84.9637 113.583 85.2021 114.102 85.0432L115.101 84.209L114.142 83.911Z" fill="url(#paint75_linear_0_5477)"/>
<path d="M134.503 66.3728C132.904 69.3323 130.107 73.6622 125.412 77.7737C121.515 81.1899 117.659 83.2953 114.802 84.5665C114.622 84.5665 114.322 84.5466 114.002 84.3877C113.763 84.2884 113.583 84.1494 113.463 84.0302C113.922 83.1563 114.702 81.8851 115.96 80.6338C118.278 78.3695 119.537 78.8462 121.755 76.8997C123.373 75.4697 124.333 73.7218 126.211 70.1864C127.51 67.7433 127.749 66.8297 128.888 66.1742C130.627 65.201 132.864 65.7373 134.503 66.3728Z" fill="url(#paint76_linear_0_5477)"/>
<g opacity="0.3">
<path d="M129.987 65.777C128.489 73.8608 125.931 76.6018 123.773 77.5552C122.534 78.1113 120.596 78.449 118.618 80.2962C117.279 81.5673 116.9 82.6001 115.461 83.335C114.822 83.6528 114.162 83.8117 113.543 83.8713C113.503 83.9309 113.483 83.9905 113.463 84.0302C113.583 84.1295 113.763 84.2686 114.002 84.3877C114.322 84.5268 114.622 84.5665 114.802 84.5665C117.639 83.2953 121.515 81.1899 125.412 77.7737C130.107 73.6622 132.904 69.3323 134.503 66.3729C133.184 65.8763 131.506 65.4195 129.987 65.777Z" fill="url(#paint77_linear_0_5477)"/>
</g>
<path d="M129.967 67.9817C128.748 68.1803 126.111 68.6173 125.871 69.8686C125.731 70.5638 126.351 71.4576 127.11 71.8548C128.569 72.6294 129.847 71.2788 133.504 71.0007C134.263 70.9411 135.842 70.822 135.982 71.2788C136.121 71.7158 134.883 72.3116 133.884 73.1657C132.805 74.1191 131.566 75.7875 131.026 78.9455C131.406 79.2236 131.785 79.5215 132.165 79.7996C133.844 78.886 136.461 77.1977 138.659 74.1985C139.938 72.4507 140.857 71.2192 140.477 70.0275C139.638 67.4653 133.424 67.4057 129.967 67.9817Z" fill="url(#paint78_linear_0_5477)"/>
<path d="M140.457 58.865C139.858 57.6137 137.14 57.6733 135.682 57.9116C133.144 58.3287 131.486 59.8581 130.527 60.7519C127.769 63.334 128.509 64.7045 126.051 66.8297C123.533 68.9947 121.036 69.0542 121.096 70.1467C121.136 71.1596 123.314 71.7753 123.573 71.8548C126.191 72.6095 128.608 71.2391 129.208 70.9014C130.806 70.0076 130.507 69.5309 132.065 68.8159C133.764 68.0413 134.303 68.1605 135.402 67.3858C136.221 66.8098 136.501 66.2736 137.7 64.2476C140.277 59.9177 140.757 59.4807 140.457 58.865Z" fill="url(#paint79_linear_0_5477)"/>
<path d="M135.502 61.3279C135.822 63.5326 139.718 64.1682 140.937 64.3668C141.936 64.5257 145.133 65.0421 145.892 63.7113C146.691 62.3011 144.593 59.2027 141.976 58.0308C141.396 57.7726 140.857 57.6336 140.457 57.5541C141.876 59.6396 142.076 60.1362 141.976 60.2156C141.756 60.3944 140.138 57.6931 138.259 57.852C136.781 57.9513 135.282 59.8184 135.502 61.3279Z" fill="url(#paint80_linear_0_5477)"/>
<g opacity="0.3">
<path d="M142.375 63.8901C141.077 63.3737 140.897 62.1422 139.139 61.5265C138.939 61.4669 136.661 60.6923 135.222 61.8046C133.664 63.0162 134.803 65.1613 133.324 66.4523C132.105 67.5248 131.006 66.3728 128.549 67.1077C125.372 68.0611 124.832 70.7028 122.834 70.6233C122.374 70.6035 121.795 70.4446 121.156 69.9282C121.136 70.0076 121.116 70.0672 121.116 70.1665C121.156 71.1795 123.334 71.7952 123.593 71.8746C126.211 72.6294 128.628 71.2589 129.228 70.9213C130.826 70.0275 130.527 69.5508 132.085 68.8357C133.784 68.0611 134.323 68.1803 135.422 67.4057C136.241 66.8297 136.521 66.2934 137.72 64.2675C137.84 64.049 137.96 63.8504 138.08 63.6716C139.198 64.0887 140.377 64.2675 140.957 64.3668C141.956 64.5257 145.153 65.0421 145.912 63.7113C145.972 63.612 146.012 63.4929 146.032 63.3935C144.294 64.2675 143.155 64.2079 142.375 63.8901Z" fill="url(#paint81_linear_0_5477)"/>
</g>
<path d="M95.5398 85.9568C95.4199 85.9568 95.3001 85.8972 95.2401 85.7781C95.1602 85.6192 95.2201 85.4206 95.38 85.3212C95.5398 85.2418 110.825 77.2771 119.737 69.2529C129.927 60.0567 135.822 58.1102 138.479 57.7726L86.7282 35.2689C86.5683 35.1895 86.4884 34.9908 86.5483 34.8319C86.6083 34.673 86.8281 34.5936 86.9879 34.6532L140.218 57.7925C140.377 57.8719 140.457 58.0507 140.397 58.2096C140.337 58.3685 140.158 58.4678 139.998 58.4082C139.978 58.4082 138.559 58.0507 135.422 59.2622C132.505 60.3745 127.51 63.0956 120.176 69.7097C111.205 77.7935 95.8395 85.7979 95.6797 85.8774C95.6397 85.937 95.5798 85.9568 95.5398 85.9568Z" fill="#97A6B7"/>
<path d="M141.057 57.9911C141.117 57.8719 140.777 57.4548 140.337 57.3754C139.898 57.2959 139.418 57.5343 139.418 57.6733C139.418 57.7527 139.678 57.7925 140.158 57.8918C140.737 58.0109 141.017 58.0705 141.057 57.9911Z" fill="url(#paint82_linear_0_5477)"/>
<path d="M103.515 61.2308C103.555 77.1845 95.1469 90.221 80.1838 90.6435C79.9447 90.6435 76.1392 90.6435 75.9001 90.6435C60.6182 90.6837 48.1855 77.5667 48.1656 61.3716C48.1258 45.1563 60.4987 31.9991 75.7806 31.9588C76.1392 31.9588 79.4865 31.9991 79.8451 31.9991C94.6289 32.5624 103.495 45.3978 103.515 61.2308Z" fill="url(#paint83_linear_0_5477)"/>
<ellipse cx="81.0206" cy="61.5527" rx="27.6747" ry="29.3524" fill="url(#paint84_linear_0_5477)"/>
<ellipse opacity="0.3" cx="81.0206" cy="61.5526" rx="26.9774" ry="28.608" fill="url(#paint85_linear_0_5477)"/>
<ellipse cx="81.0206" cy="61.5526" rx="26.1605" ry="27.7429" fill="url(#paint86_linear_0_5477)"/>
<ellipse cx="80.4628" cy="61.5526" rx="25.6026" ry="27.1595" fill="url(#paint87_linear_0_5477)"/>
<path d="M83.1525 60.7882L102.658 68.4331C103.296 66.2804 103.635 63.9869 103.635 61.5929C103.635 49.3409 94.5691 39.3422 83.1525 38.7185V60.7882Z" fill="url(#paint88_linear_0_5477)"/>
<g opacity="0.54">
<path d="M74.0272 60.9491C71.995 54.3302 79.3271 49.5421 78.1715 41.8369C77.6534 38.4369 75.6809 35.6405 73.2502 33.4073C61.734 36.9683 53.326 48.2747 53.3459 61.6532C53.3858 77.8685 65.7985 90.9654 81.0804 90.9252C84.8262 90.9252 88.3926 90.1204 91.6602 88.6719C91.182 79.2969 88.3328 74.0058 85.3243 70.8271C80.6421 65.8982 75.5813 65.9988 74.0272 60.9491Z" fill="#D8DEE8"/>
</g>
<path d="M78.6297 82.5158C77.3745 82.3548 76.0994 82.0732 74.8641 81.6507C64.8223 78.1904 59.3232 66.723 62.5708 56.1006C64.1847 50.8297 67.6714 46.5847 72.3735 44.1303C72.9513 43.8286 73.6487 44.0901 73.9276 44.6936C74.2066 45.2972 73.9675 46.0416 73.3897 46.3433C69.2654 48.4759 66.197 52.2178 64.7824 56.845C61.9133 66.1798 66.7549 76.259 75.5813 79.2969C82.0368 81.53 89.0899 79.4377 93.5131 73.9656C93.9315 73.4425 94.6687 73.3821 95.1469 73.8449C95.6251 74.2875 95.6849 75.0721 95.2664 75.575C91.0824 80.7454 84.8262 83.2602 78.6297 82.5158Z" fill="white"/>
<path d="M70.0822 50.9906L72.254 45.5386L67.1135 43.2451L70.2018 41.8972L75.3422 44.1907L73.1904 49.6427L70.0822 50.9906Z" fill="white"/>
<ellipse cx="80.383" cy="61.9751" rx="1.63378" ry="1.73016" fill="url(#paint89_linear_0_5477)"/>
<path d="M80.383 48.2344C79.8052 48.2344 79.347 48.7173 79.347 49.3208V60.9491C79.347 61.5527 79.8052 62.0355 80.383 62.0355C80.9608 62.0355 81.4191 61.5527 81.4191 60.9491V49.3208C81.4191 48.7173 80.9608 48.2344 80.383 48.2344Z" fill="url(#paint90_linear_0_5477)"/>
<path d="M80.2834 62.2367C80.0642 61.9751 79.6857 61.955 79.4267 62.1964L65.5793 75.6354C65.3403 75.8768 65.3203 76.2791 65.5395 76.5407C65.7587 76.8022 66.1372 76.8223 66.3962 76.5809L80.2436 63.142C80.4826 62.9006 80.5026 62.4982 80.2834 62.2367Z" fill="url(#paint91_linear_0_5477)"/>
<path d="M34.8566 88.3989L34.4841 90.014C34.4841 90.014 34.6801 90.2932 35.1311 90.2134L35.8762 88.698L34.8566 88.3989Z" fill="url(#paint92_linear_0_5477)"/>
<path d="M34.8566 89.6352C34.8566 89.6352 34.0135 89.8346 34.1115 90.2134C34.1703 90.4128 34.3664 90.8914 34.5625 91.2902C34.7389 91.669 35.1115 91.8684 35.5232 91.8286C35.6605 91.8086 35.7977 91.7887 35.9154 91.7887C36.1703 91.7687 36.2291 91.4298 36.0134 91.3101C35.9154 91.2503 35.7977 91.1905 35.6997 91.1705C35.4252 91.0708 35.1311 90.3131 35.1311 90.034C35.1311 89.7349 34.8566 89.6352 34.8566 89.6352Z" fill="url(#paint93_linear_0_5477)"/>
<path d="M35.7978 72.4071C36.8958 73.0252 40.8957 75.3981 41.229 79.3661C41.2486 79.5854 41.2878 80.1637 41.131 81.0809C40.5231 84.9094 37.7977 87.7608 35.8958 89.356C35.4056 89.2563 34.8958 89.1566 34.4056 89.0769C34.3272 88.0599 34.3272 86.5644 34.9742 84.9892C35.935 82.5764 37.484 82.1776 37.4056 80.9015C37.2879 78.5885 32.1116 78.0301 31.9743 75.9564C31.8959 75.1787 32.4841 74.0222 35.7978 72.4071Z" fill="url(#paint94_linear_0_5477)"/>
<path d="M13.0336 94.6401L15.5238 94.341C15.6806 94.3211 15.7198 94.1217 15.6022 94.0419C15.4846 93.9621 15.3081 93.8824 15.112 93.9223C14.6414 94.022 13.5238 93.4437 13.0532 93.6431C12.8964 93.7029 12.7984 94.1017 12.7591 94.2014C12.6219 94.4208 12.7984 94.68 13.0336 94.6401Z" fill="url(#paint95_linear_0_5477)"/>
<path d="M13.9748 92.5863L13.0337 93.6431C13.0337 93.6431 13.4258 93.8824 13.9356 93.7229L14.916 92.8854L13.9748 92.5863Z" fill="url(#paint96_linear_0_5477)"/>
<path d="M47.5818 53.185C47.6406 53.0055 47.719 52.7264 47.7975 52.3674C48.0131 51.4901 47.9935 51.2907 48.17 50.9517C48.5033 50.2738 49.0719 49.9547 49.1112 49.9946C49.1504 50.0345 48.5818 50.5529 48.5229 51.3306C48.5033 51.51 48.5229 51.7692 48.6014 51.7692C48.719 51.7892 48.8955 51.1511 48.9739 51.1711C49.0327 51.191 49.0719 51.6496 48.8366 52.0683C48.621 52.4273 48.4249 52.3674 48.17 52.7463C47.8955 53.165 47.9347 53.5638 47.7975 53.5638C47.7582 53.5638 47.6798 53.504 47.5818 53.185Z" fill="url(#paint97_linear_0_5477)"/>
<g opacity="0.3">
<path d="M37.9938 82.9354C38.8761 81.38 39.9349 79.4658 39.3075 78.1697C38.6604 76.8537 36.6801 77.5316 34.9939 76.2754C34.3664 75.8168 33.7782 75.0591 33.3861 73.8228C32.1704 74.7201 31.9155 75.418 31.9547 75.9364C32.092 78.0301 37.2683 78.5685 37.386 80.8815C37.4644 82.1577 35.9154 82.5565 34.9547 84.9692C34.4056 86.3252 34.3272 87.6212 34.3664 88.5983C34.6998 87.7409 35.1311 86.8635 35.6997 86.0061C36.6017 84.6901 37.0722 84.5704 37.9938 82.9354Z" fill="url(#paint98_linear_0_5477)"/>
</g>
<path d="M35.4252 73.3642C33.739 76.5945 30.7979 81.3402 25.8765 85.8466C21.7785 89.5953 17.7198 91.8884 14.7395 93.2642C14.5434 93.2642 14.2493 93.2244 13.8964 93.0648C13.6415 92.9452 13.465 92.8056 13.3278 92.686C13.7983 91.7289 14.6218 90.3331 15.9551 88.9771C18.3865 86.4847 19.7001 87.023 22.0334 84.8895C23.7393 83.3341 24.7392 81.4 26.7196 77.5516C28.0921 74.8796 28.3274 73.8826 29.5234 73.1648C31.3469 72.088 33.6802 72.6663 35.4252 73.3642Z" fill="url(#paint99_linear_0_5477)"/>
<path d="M47.5034 52.507C46.5034 54.1421 45.4838 55.1989 44.7975 55.837C41.7976 58.5887 39.7781 58.1899 37.0526 61.2806C36.3272 62.0981 35.386 64.3115 35.7782 65.1091C36.2291 66.0263 38.0134 65.5876 39.6408 64.5906C40.582 64.0323 40.4251 63.6136 41.9741 62.0184C43.229 60.7422 43.4642 60.8618 44.876 59.4461C45.9348 58.3893 46.6406 57.6914 47.2092 56.5947C47.9151 55.2587 48.0916 54.0025 48.1504 53.165C47.9347 52.9457 47.719 52.7264 47.5034 52.507Z" fill="url(#paint100_linear_0_5477)"/>
<path d="M51.8954 53.9427C51.9934 53.7034 52.0719 53.4243 52.1111 53.1252C52.1503 52.846 52.1307 52.7463 52.1699 52.507C52.2483 52.1481 52.3856 51.869 52.464 51.7094C52.7777 51.1511 53.2287 50.7523 53.2875 50.7922C53.3463 50.852 52.7777 51.3505 52.8365 52.0883C52.8561 52.4073 52.9738 52.507 52.915 52.7862C52.8561 53.0853 52.6993 53.0853 52.464 53.4841C52.2091 53.9427 52.2091 54.3016 52.0915 54.3016C52.0719 54.3216 51.9934 54.2618 51.8954 53.9427Z" fill="url(#paint101_linear_0_5477)"/>
<path d="M41.68 58.4092L41.3859 59.0673C41.229 59.4262 40.9153 59.6655 40.5427 59.7452L39.6016 59.9845C39.4839 60.0244 39.4839 60.1839 39.582 60.2238C40.1702 60.4431 41.4251 60.8419 42.8368 60.6824C44.7975 60.483 43.3662 60.2437 42.8956 60.2038C42.4251 60.164 42.1505 59.9646 42.0133 59.6256C41.876 59.2866 42.2486 58.7482 42.2486 58.7482L41.68 58.4092Z" fill="url(#paint102_linear_0_5477)"/>
<g opacity="0.3">
<path d="M16.3277 89.8346C17.1316 89.1367 18.3668 88.5385 20.8178 87.362C23.3471 86.1457 23.1706 86.4448 23.7196 86.026C26.1902 84.1317 26.0725 81.2205 27.4647 78.2096C28.2489 76.5346 29.7195 74.4808 32.7194 72.6065C31.6214 72.4669 30.4842 72.5666 29.5234 73.1448C28.3274 73.8627 28.0921 74.8597 26.7196 77.5316C24.7392 81.38 23.7393 83.2943 22.0334 84.8695C19.7001 87.0031 18.3865 86.4847 15.9551 88.9572C14.6218 90.3131 13.8179 91.7089 13.3278 92.666C13.4454 92.7857 13.6415 92.9253 13.8964 93.0449C14.0924 93.1446 14.2885 93.1845 14.4454 93.2044C14.9552 91.1307 15.9159 90.1935 16.3277 89.8346Z" fill="url(#paint103_linear_0_5477)"/>
</g>
<path d="M41.8368 59.5059C41.9152 59.4661 42.6211 59.3664 42.7191 58.9875C42.8564 58.4691 42.3858 57.8509 42.327 57.7512C42.0917 57.3325 42.0329 57.2727 41.9152 57.1929L41.7584 57.0932C41.7584 57.0932 41.7584 57.0932 41.7388 57.0932C41.6407 57.0533 41.3074 57.0533 41.2486 57.0733C41.0329 57.1331 40.8172 58.0105 40.9153 59.2667C40.9153 59.3066 40.8957 59.3664 40.8957 59.4062C40.8957 59.5458 41.8564 59.5458 41.8368 59.5059Z" fill="url(#paint104_linear_0_5477)"/>
<path d="M42.5035 57.0134C42.4251 57.2527 42.1113 57.492 41.9545 57.6116C41.9349 57.6316 41.8761 57.6914 41.8172 57.7712C41.8172 57.7911 41.7976 57.7911 41.7976 57.811C41.7192 58.0503 42.1113 58.3295 42.0329 58.4491C41.9741 58.5289 41.7192 58.4292 41.68 58.489C41.6604 58.5488 41.8761 58.6884 41.8368 58.7682C41.8172 58.828 41.68 58.7682 41.6015 58.8679C41.5623 58.9077 41.5819 58.9476 41.5231 59.0872C41.5035 59.167 41.4643 59.2467 41.4447 59.3065C41.327 59.5458 40.9545 59.6256 40.8761 59.5458C40.8565 59.5259 40.8761 59.5059 40.8565 59.4062C40.8565 59.4062 40.8369 59.3265 40.778 59.2467C40.6996 59.1271 40.5035 59.0274 40.3075 58.8878C39.9545 58.6485 39.8565 58.4292 39.8173 58.3494V58.3295C39.8173 58.3095 39.8173 58.3095 39.7977 58.2896C39.7192 58.0304 39.9153 57.7313 40.033 57.6116C40.1898 57.4322 40.4643 57.153 40.8565 56.8938C40.9545 56.834 41.9937 56.176 42.3858 56.495C42.5231 56.6146 42.5427 56.8539 42.5035 57.0134Z" fill="#26264F"/>
<path d="M41.8957 58.3694C41.7976 58.2497 41.6408 58.3694 41.6408 58.5289C41.6408 58.6884 41.8172 58.8679 41.9741 58.828C42.1309 58.8081 42.0329 58.5488 41.8957 58.3694Z" fill="url(#paint105_linear_0_5477)"/>
<path d="M24.1902 74.7002C26.4843 74.5805 26.6019 75.5377 29.4254 75.9365C30.4842 76.076 33.0527 76.415 35.6997 75.1787C37.3663 74.4011 38.2487 73.3841 38.4055 73.1847C39.3075 72.108 39.6408 71.0512 39.8172 70.6125C40.8956 67.7013 43.9936 66.0064 45.621 64.81C47.817 63.1948 50.5817 60.1241 52.8365 53.6636C52.5228 53.5439 52.2091 53.4043 51.8954 53.2847C51.013 55.1591 49.915 56.3754 49.1896 57.0932C48.2288 58.0105 45.7779 60.4033 42.5427 60.4232C40.6408 60.4431 40.229 59.6256 38.7977 60.0443C37.6212 60.3833 37.2291 61.1012 35.3272 63.3743C32.6998 66.5049 31.3665 68.0801 29.994 68.6185C28.3862 69.2366 27.6803 68.778 26.1509 69.7551C24.8372 70.6125 24.798 71.3104 23.6216 71.7491C21.8961 72.3872 20.6413 71.3902 20.1511 72.0282C19.7393 72.6065 20.2491 74.0023 21.1903 74.6005C22.0334 75.1389 22.8373 74.76 24.1902 74.7002Z" fill="url(#paint106_linear_0_5477)"/>
<g opacity="0.3">
<path d="M48.9935 59.7452C47.5621 60.8818 46.6406 60.9017 44.8759 62.5966C43.1701 64.2516 43.2093 65.0293 41.6015 66.4052C39.8957 67.8408 39.3859 67.3623 37.3859 68.6982C33.9154 70.9913 34.1507 73.3243 32.0527 73.6433C29.8959 73.9823 29.2881 71.5696 26.5235 71.6494C23.9549 71.7092 22.8961 73.8228 21.2883 73.2645C20.7785 73.085 20.3864 72.7261 20.0727 72.2276C19.857 72.8856 20.3668 74.0621 21.2099 74.6005C22.0726 75.1588 22.8569 74.7799 24.2098 74.7002C26.5039 74.5805 26.6215 75.5376 29.445 75.9364C30.5038 76.076 33.0723 76.415 35.7193 75.1787C37.3859 74.4011 38.2683 73.3841 38.4251 73.1847C39.3271 72.108 39.6604 71.0512 39.8369 70.6125C40.9153 67.7012 44.0132 66.0064 45.6406 64.81C47.8367 63.1948 50.6013 60.1241 52.8561 53.6635C52.8169 53.6436 52.7777 53.6237 52.7385 53.6237C51.7777 56.9337 50.2876 58.7083 48.9935 59.7452Z" fill="url(#paint107_linear_0_5477)"/>
</g>
<defs>
<linearGradient id="paint0_linear_0_5477" x1="37.1461" y1="-3.29178" x2="17.9761" y2="25.5331" gradientUnits="userSpaceOnUse">
<stop stop-color="#FF9085"/>
<stop offset="1" stop-color="#FB6FBB"/>
</linearGradient>
<linearGradient id="paint1_linear_0_5477" x1="39.6775" y1="33.6411" x2="27.1944" y2="51.9736" gradientUnits="userSpaceOnUse">
<stop stop-color="#AA80F9"/>
<stop offset="0.9964" stop-color="#6165D7"/>
</linearGradient>
<linearGradient id="paint2_linear_0_5477" x1="41.3677" y1="9.10867" x2="33.745" y2="20.6176" gradientUnits="userSpaceOnUse">
<stop stop-color="#FF9085"/>
<stop offset="1" stop-color="#FB6FBB"/>
</linearGradient>
<linearGradient id="paint3_linear_0_5477" x1="-112.085" y1="-5.97717" x2="-112.644" y2="49.3146" gradientUnits="userSpaceOnUse">
<stop stop-color="#AA80F9"/>
<stop offset="0.9964" stop-color="#6165D7"/>
</linearGradient>
<linearGradient id="paint4_linear_0_5477" x1="-83.237" y1="10.5807" x2="-83.9053" y2="66.1035" gradientUnits="userSpaceOnUse">
<stop stop-color="#AA80F9"/>
<stop offset="0.9964" stop-color="#6165D7"/>
</linearGradient>
<linearGradient id="paint5_linear_0_5477" x1="-7.91771" y1="-3.34826" x2="-8.21528" y2="21.7266" gradientUnits="userSpaceOnUse">
<stop stop-color="#AA80F9"/>
<stop offset="0.9964" stop-color="#6165D7"/>
</linearGradient>
<linearGradient id="paint6_linear_0_5477" x1="168.548" y1="21.8479" x2="156.042" y2="36.5863" gradientUnits="userSpaceOnUse">
<stop stop-color="#FF9085"/>
<stop offset="1" stop-color="#FB6FBB"/>
</linearGradient>
<linearGradient id="paint7_linear_0_5477" x1="173.656" y1="14.3966" x2="168.547" y2="20.3537" gradientUnits="userSpaceOnUse">
<stop stop-color="#FF9085"/>
<stop offset="1" stop-color="#FB6FBB"/>
</linearGradient>
<linearGradient id="paint8_linear_0_5477" x1="60.9903" y1="25.0633" x2="51.9146" y2="40.4321" gradientUnits="userSpaceOnUse">
<stop stop-color="#AA80F9"/>
<stop offset="0.9964" stop-color="#6165D7"/>
</linearGradient>
<linearGradient id="paint9_linear_0_5477" x1="104.908" y1="40.8233" x2="104.64" y2="56.1548" gradientUnits="userSpaceOnUse">
<stop stop-color="#FF9085"/>
<stop offset="1" stop-color="#FB6FBB"/>
</linearGradient>
<linearGradient id="paint10_linear_0_5477" x1="34.9279" y1="68.3632" x2="70.6298" y2="68.3632" gradientUnits="userSpaceOnUse">
<stop stop-color="#444B8C"/>
<stop offset="0.9964" stop-color="#26264F"/>
</linearGradient>
<linearGradient id="paint11_linear_0_5477" x1="53.0794" y1="68.3632" x2="88.7813" y2="68.3632" gradientUnits="userSpaceOnUse">
<stop stop-color="#444B8C"/>
<stop offset="0.9964" stop-color="#26264F"/>
</linearGradient>
<linearGradient id="paint12_linear_0_5477" x1="140.068" y1="19.5915" x2="74.4453" y2="29.4344" gradientUnits="userSpaceOnUse">
<stop stop-color="#444B8C"/>
<stop offset="0.9964" stop-color="#26264F"/>
</linearGradient>
<linearGradient id="paint13_linear_0_5477" x1="68.5389" y1="75.5145" x2="158.718" y2="75.5145" gradientUnits="userSpaceOnUse">
<stop stop-color="#444B8C"/>
<stop offset="0.9964" stop-color="#26264F"/>
</linearGradient>
<linearGradient id="paint14_linear_0_5477" x1="97.3489" y1="6.75864" x2="89.4689" y2="48.6432" gradientUnits="userSpaceOnUse">
<stop offset="0.00359712" stop-color="#EBEFF2"/>
<stop offset="1" stop-color="white"/>
</linearGradient>
<linearGradient id="paint15_linear_0_5477" x1="76.5874" y1="26.5842" x2="144.647" y2="26.5842" gradientUnits="userSpaceOnUse">
<stop offset="0.00359712" stop-color="#E38DDD"/>
<stop offset="1" stop-color="#9571F6"/>
</linearGradient>
<linearGradient id="paint16_linear_0_5477" x1="79.7097" y1="34.4799" x2="90.6211" y2="34.4799" gradientUnits="userSpaceOnUse">
<stop stop-color="#AA80F9"/>
<stop offset="0.9964" stop-color="#6165D7"/>
</linearGradient>
<linearGradient id="paint17_linear_0_5477" x1="94.5664" y1="34.4003" x2="105.024" y2="34.4003" gradientUnits="userSpaceOnUse">
<stop stop-color="#AA80F9"/>
<stop offset="0.9964" stop-color="#6165D7"/>
</linearGradient>
<linearGradient id="paint18_linear_0_5477" x1="93.1576" y1="33.7774" x2="89.737" y2="47.0639" gradientUnits="userSpaceOnUse">
<stop offset="0.00359712" stop-color="#E38DDD"/>
<stop offset="1" stop-color="#9571F6"/>
</linearGradient>
<linearGradient id="paint19_linear_0_5477" x1="94.9515" y1="31.935" x2="89.0007" y2="48.1264" gradientUnits="userSpaceOnUse">
<stop offset="0.00359712" stop-color="#E38DDD"/>
<stop offset="1" stop-color="#9571F6"/>
</linearGradient>
<linearGradient id="paint20_linear_0_5477" x1="97.6143" y1="35.951" x2="95.1925" y2="47.61" gradientUnits="userSpaceOnUse">
<stop offset="0.00359712" stop-color="#E38DDD"/>
<stop offset="1" stop-color="#9571F6"/>
</linearGradient>
<linearGradient id="paint21_linear_0_5477" x1="99.9935" y1="37.6937" x2="98.6622" y2="46.9937" gradientUnits="userSpaceOnUse">
<stop offset="0.00359712" stop-color="#E38DDD"/>
<stop offset="1" stop-color="#9571F6"/>
</linearGradient>
<linearGradient id="paint22_linear_0_5477" x1="101.486" y1="34.9029" x2="96.4753" y2="49.8824" gradientUnits="userSpaceOnUse">
<stop offset="0.00359712" stop-color="#E38DDD"/>
<stop offset="1" stop-color="#9571F6"/>
</linearGradient>
<linearGradient id="paint23_linear_0_5477" x1="108.807" y1="34.3144" x2="118.838" y2="34.3144" gradientUnits="userSpaceOnUse">
<stop stop-color="#AA80F9"/>
<stop offset="0.9964" stop-color="#6165D7"/>
</linearGradient>
<linearGradient id="paint24_linear_0_5477" x1="103.476" y1="38.5887" x2="102.251" y2="58.0523" gradientUnits="userSpaceOnUse">
<stop stop-color="#FF9085"/>
<stop offset="1" stop-color="#FB6FBB"/>
</linearGradient>
<linearGradient id="paint25_linear_0_5477" x1="122.468" y1="34.2344" x2="132.098" y2="34.2344" gradientUnits="userSpaceOnUse">
<stop stop-color="#AA80F9"/>
<stop offset="0.9964" stop-color="#6165D7"/>
</linearGradient>
<linearGradient id="paint26_linear_0_5477" x1="100.505" y1="36.7861" x2="105.96" y2="59.8177" gradientUnits="userSpaceOnUse">
<stop stop-color="#FFC444"/>
<stop offset="0.9964" stop-color="#F36F56"/>
</linearGradient>
<linearGradient id="paint27_linear_0_5477" x1="135.585" y1="34.157" x2="144.838" y2="34.157" gradientUnits="userSpaceOnUse">
<stop stop-color="#AA80F9"/>
<stop offset="0.9964" stop-color="#6165D7"/>
</linearGradient>
<linearGradient id="paint28_linear_0_5477" x1="139.251" y1="51.8792" x2="148.505" y2="51.8792" gradientUnits="userSpaceOnUse">
<stop stop-color="#AA80F9"/>
<stop offset="0.9964" stop-color="#6165D7"/>
</linearGradient>
<linearGradient id="paint29_linear_0_5477" x1="139.758" y1="54.4368" x2="149.011" y2="54.4368" gradientUnits="userSpaceOnUse">
<stop stop-color="#AA80F9"/>
<stop offset="0.9964" stop-color="#6165D7"/>
</linearGradient>
<linearGradient id="paint30_linear_0_5477" x1="140.264" y1="56.9997" x2="149.518" y2="56.9997" gradientUnits="userSpaceOnUse">
<stop stop-color="#AA80F9"/>
<stop offset="0.9964" stop-color="#6165D7"/>
</linearGradient>
<linearGradient id="paint31_linear_0_5477" x1="85.5348" y1="4.54383" x2="89.2996" y2="29.7948" gradientUnits="userSpaceOnUse">
<stop offset="0.00359712" stop-color="#E38DDD"/>
<stop offset="1" stop-color="#9571F6"/>
</linearGradient>
<linearGradient id="paint32_linear_0_5477" x1="67.8537" y1="-13.6639" x2="61.296" y2="39.2844" gradientUnits="userSpaceOnUse">
<stop offset="0.00359712" stop-color="#E38DDD"/>
<stop offset="1" stop-color="#9571F6"/>
</linearGradient>
<linearGradient id="paint33_linear_0_5477" x1="117.312" y1="15.3165" x2="120.208" y2="34.9913" gradientUnits="userSpaceOnUse">
<stop stop-color="#FFC444"/>
<stop offset="0.9964" stop-color="#F36F56"/>
</linearGradient>
<linearGradient id="paint34_linear_0_5477" x1="102.395" y1="1.00277" x2="97.1201" y2="43.3093" gradientUnits="userSpaceOnUse">
<stop stop-color="#FFC444"/>
<stop offset="0.9964" stop-color="#F36F56"/>
</linearGradient>
<linearGradient id="paint35_linear_0_5477" x1="84.4465" y1="6.81755" x2="80.2038" y2="6.81755" gradientUnits="userSpaceOnUse">
<stop stop-color="#FFC444"/>
<stop offset="0.9964" stop-color="#F36F56"/>
</linearGradient>
<linearGradient id="paint36_linear_0_5477" x1="91.7536" y1="14.5035" x2="83.5251" y2="14.5035" gradientUnits="userSpaceOnUse">
<stop stop-color="#444B8C"/>
<stop offset="0.9964" stop-color="#26264F"/>
</linearGradient>
<linearGradient id="paint37_linear_0_5477" x1="81.5707" y1="27.3341" x2="80.0703" y2="33.5078" gradientUnits="userSpaceOnUse">
<stop stop-color="#444B8C"/>
<stop offset="0.9964" stop-color="#26264F"/>
</linearGradient>
<linearGradient id="paint38_linear_0_5477" x1="87.8856" y1="15.0928" x2="79.6577" y2="15.0928" gradientUnits="userSpaceOnUse">
<stop stop-color="#444B8C"/>
<stop offset="0.9964" stop-color="#3E4177"/>
</linearGradient>
<linearGradient id="paint39_linear_0_5477" x1="87.763" y1="32.4317" x2="90.0628" y2="24.1775" gradientUnits="userSpaceOnUse">
<stop stop-color="#FFC444"/>
<stop offset="0.9964" stop-color="#F36F56"/>
</linearGradient>
<linearGradient id="paint40_linear_0_5477" x1="84.8673" y1="7.44452" x2="75.474" y2="11.0087" gradientUnits="userSpaceOnUse">
<stop stop-color="#444B8C"/>
<stop offset="0.9964" stop-color="#26264F"/>
</linearGradient>
<linearGradient id="paint41_linear_0_5477" x1="60.0253" y1="4.6923" x2="65.0931" y2="15.3012" gradientUnits="userSpaceOnUse">
<stop stop-color="#444B8C"/>
<stop offset="0.9964" stop-color="#26264F"/>
</linearGradient>
<linearGradient id="paint42_linear_0_5477" x1="78.0819" y1="18.3408" x2="86.1786" y2="11.4889" gradientUnits="userSpaceOnUse">
<stop stop-color="#FFC444"/>
<stop offset="0.9964" stop-color="#F36F56"/>
</linearGradient>
<linearGradient id="paint43_linear_0_5477" x1="77.5658" y1="4.89716" x2="77.4739" y2="6.27867" gradientUnits="userSpaceOnUse">
<stop stop-color="#311944"/>
<stop offset="1" stop-color="#A03976"/>
</linearGradient>
<linearGradient id="paint44_linear_0_5477" x1="79.354" y1="3.88916" x2="79.354" y2="4.2914" gradientUnits="userSpaceOnUse">
<stop stop-color="#311944"/>
<stop offset="1" stop-color="#A03976"/>
</linearGradient>
<linearGradient id="paint45_linear_0_5477" x1="78.6935" y1="18.251" x2="86.073" y2="10.6655" gradientUnits="userSpaceOnUse">
<stop stop-color="#FFC444"/>
<stop offset="0.9964" stop-color="#F36F56"/>
</linearGradient>
<linearGradient id="paint46_linear_0_5477" x1="77.9471" y1="16.8096" x2="84.1868" y2="16.8096" gradientUnits="userSpaceOnUse">
<stop offset="0.00359712" stop-color="#E38DDD"/>
<stop offset="1" stop-color="#9571F6"/>
</linearGradient>
<linearGradient id="paint47_linear_0_5477" x1="81.6109" y1="16.1135" x2="90.1754" y2="16.1135" gradientUnits="userSpaceOnUse">
<stop offset="0.00359712" stop-color="#E38DDD"/>
<stop offset="1" stop-color="#9571F6"/>
</linearGradient>
<linearGradient id="paint48_linear_0_5477" x1="84.6019" y1="10.7569" x2="83.0471" y2="15.5915" gradientUnits="userSpaceOnUse">
<stop offset="0.00359712" stop-color="#E38DDD"/>
<stop offset="1" stop-color="#9571F6"/>
</linearGradient>
<linearGradient id="paint49_linear_0_5477" x1="80.1681" y1="10.2444" x2="73.0527" y2="6.23586" gradientUnits="userSpaceOnUse">
<stop stop-color="#FFC444"/>
<stop offset="0.9964" stop-color="#F36F56"/>
</linearGradient>
<linearGradient id="paint50_linear_0_5477" x1="81.5277" y1="16.9356" x2="81.9418" y2="13.5768" gradientUnits="userSpaceOnUse">
<stop stop-color="#311944"/>
<stop offset="1" stop-color="#A03976"/>
</linearGradient>
<linearGradient id="paint51_linear_0_5477" x1="118.462" y1="30.1072" x2="122.762" y2="56.9778" gradientUnits="userSpaceOnUse">
<stop offset="0.00359712" stop-color="#E38DDD"/>
<stop offset="1" stop-color="#9571F6"/>
</linearGradient>
<linearGradient id="paint52_linear_0_5477" x1="100.634" y1="9.37789" x2="92.5052" y2="67.4816" gradientUnits="userSpaceOnUse">
<stop offset="0.00359712" stop-color="#E38DDD"/>
<stop offset="1" stop-color="#9571F6"/>
</linearGradient>
<linearGradient id="paint53_linear_0_5477" x1="167.196" y1="36.924" x2="165.499" y2="42.9115" gradientUnits="userSpaceOnUse">
<stop stop-color="#FF9085"/>
<stop offset="1" stop-color="#FB6FBB"/>
</linearGradient>
<linearGradient id="paint54_linear_0_5477" x1="167.156" y1="36.9279" x2="165.494" y2="42.9335" gradientUnits="userSpaceOnUse">
<stop stop-color="#FF9085"/>
<stop offset="1" stop-color="#FB6FBB"/>
</linearGradient>
<linearGradient id="paint55_linear_0_5477" x1="169.773" y1="40.5695" x2="168.038" y2="37.1208" gradientUnits="userSpaceOnUse">
<stop offset="0.003597" stop-color="#F36F56"/>
<stop offset="1" stop-color="#FFC444"/>
</linearGradient>
<linearGradient id="paint56_linear_0_5477" x1="167.381" y1="41.9707" x2="167.262" y2="39.3263" gradientUnits="userSpaceOnUse">
<stop stop-color="#AB316D"/>
<stop offset="1" stop-color="#792D3D"/>
</linearGradient>
<linearGradient id="paint57_linear_0_5477" x1="160.525" y1="38.0164" x2="160.412" y2="45.793" gradientUnits="userSpaceOnUse">
<stop offset="0.003597" stop-color="#F36F56"/>
<stop offset="1" stop-color="#FFC444"/>
</linearGradient>
<linearGradient id="paint58_linear_0_5477" x1="166.973" y1="39.4932" x2="164.423" y2="41.034" gradientUnits="userSpaceOnUse">
<stop offset="0.003597" stop-color="#F36F56"/>
<stop offset="1" stop-color="#FFC444"/>
</linearGradient>
<linearGradient id="paint59_linear_0_5477" x1="154.529" y1="41.7056" x2="153.239" y2="39.6602" gradientUnits="userSpaceOnUse">
<stop offset="0.003597" stop-color="#F36F56"/>
<stop offset="1" stop-color="#FFC444"/>
</linearGradient>
<linearGradient id="paint60_linear_0_5477" x1="162.662" y1="72.7913" x2="164.009" y2="68.1893" gradientUnits="userSpaceOnUse">
<stop stop-color="#444B8C"/>
<stop offset="0.9964" stop-color="#26264F"/>
</linearGradient>
<linearGradient id="paint61_linear_0_5477" x1="164.896" y1="71.8853" x2="166.315" y2="64.6468" gradientUnits="userSpaceOnUse">
<stop stop-color="#FFC444"/>
<stop offset="0.9964" stop-color="#F36F56"/>
</linearGradient>
<linearGradient id="paint62_linear_0_5477" x1="173.437" y1="70.0808" x2="173.334" y2="62.7007" gradientUnits="userSpaceOnUse">
<stop stop-color="#FFC444"/>
<stop offset="0.9964" stop-color="#F36F56"/>
</linearGradient>
<linearGradient id="paint63_linear_0_5477" x1="171.573" y1="71.0826" x2="172.92" y2="66.4808" gradientUnits="userSpaceOnUse">
<stop stop-color="#444B8C"/>
<stop offset="0.9964" stop-color="#26264F"/>
</linearGradient>
<linearGradient id="paint64_linear_0_5477" x1="164.855" y1="60.6637" x2="173.362" y2="64.1608" gradientUnits="userSpaceOnUse">
<stop stop-color="#AA80F9"/>
<stop offset="0.9964" stop-color="#6165D7"/>
</linearGradient>
<linearGradient id="paint65_linear_0_5477" x1="164.972" y1="60.9606" x2="173.205" y2="64.0288" gradientUnits="userSpaceOnUse">
<stop stop-color="#AA80F9"/>
<stop offset="0.9964" stop-color="#6165D7"/>
</linearGradient>
<linearGradient id="paint66_linear_0_5477" x1="155.112" y1="84.5454" x2="169.915" y2="84.4533" gradientUnits="userSpaceOnUse">
<stop stop-color="#AA80F9"/>
<stop offset="0.9964" stop-color="#6165D7"/>
</linearGradient>
<linearGradient id="paint67_linear_0_5477" x1="153.592" y1="47.1928" x2="161.134" y2="60.8496" gradientUnits="userSpaceOnUse">
<stop stop-color="#FF9085"/>
<stop offset="1" stop-color="#FB6FBB"/>
</linearGradient>
<linearGradient id="paint68_linear_0_5477" x1="151.552" y1="48.3536" x2="158.818" y2="62.1322" gradientUnits="userSpaceOnUse">
<stop stop-color="#FF9085"/>
<stop offset="1" stop-color="#FB6FBB"/>
</linearGradient>
<linearGradient id="paint69_linear_0_5477" x1="139.869" y1="60.6055" x2="140.781" y2="56.186" gradientUnits="userSpaceOnUse">
<stop stop-color="#FFC444"/>
<stop offset="0.9964" stop-color="#F36F56"/>
</linearGradient>
<linearGradient id="paint70_linear_0_5477" x1="136.189" y1="60.1345" x2="140.22" y2="58.3497" gradientUnits="userSpaceOnUse">
<stop stop-color="#FFC444"/>
<stop offset="0.9964" stop-color="#F36F56"/>
</linearGradient>
<linearGradient id="paint71_linear_0_5477" x1="136.529" y1="59.9101" x2="140.259" y2="57.4568" gradientUnits="userSpaceOnUse">
<stop stop-color="#FFC444"/>
<stop offset="0.9964" stop-color="#F36F56"/>
</linearGradient>
<linearGradient id="paint72_linear_0_5477" x1="121.237" y1="75.9926" x2="115.293" y2="97.1598" gradientUnits="userSpaceOnUse">
<stop stop-color="#FFC444"/>
<stop offset="0.9964" stop-color="#F36F56"/>
</linearGradient>
<linearGradient id="paint73_linear_0_5477" x1="130.571" y1="91.3147" x2="131.497" y2="88.2551" gradientUnits="userSpaceOnUse">
<stop stop-color="#AB316D"/>
<stop offset="1" stop-color="#792D3D"/>
</linearGradient>
<linearGradient id="paint74_linear_0_5477" x1="116.368" y1="89.3059" x2="116.534" y2="86.0704" gradientUnits="userSpaceOnUse">
<stop stop-color="#AB316D"/>
<stop offset="1" stop-color="#792D3D"/>
</linearGradient>
<linearGradient id="paint75_linear_0_5477" x1="106.28" y1="71.7922" x2="100.336" y2="92.9595" gradientUnits="userSpaceOnUse">
<stop stop-color="#FFC444"/>
<stop offset="0.9964" stop-color="#F36F56"/>
</linearGradient>
<linearGradient id="paint76_linear_0_5477" x1="113.467" y1="84.5737" x2="134.504" y2="84.5737" gradientUnits="userSpaceOnUse">
<stop stop-color="#444B8C"/>
<stop offset="0.9964" stop-color="#26264F"/>
</linearGradient>
<linearGradient id="paint77_linear_0_5477" x1="113.467" y1="84.5697" x2="134.504" y2="84.5697" gradientUnits="userSpaceOnUse">
<stop stop-color="#444B8C"/>
<stop offset="0.9964" stop-color="#26264F"/>
</linearGradient>
<linearGradient id="paint78_linear_0_5477" x1="125.796" y1="80.4844" x2="144.371" y2="90.534" gradientUnits="userSpaceOnUse">
<stop stop-color="#444B8C"/>
<stop offset="0.9964" stop-color="#26264F"/>
</linearGradient>
<linearGradient id="paint79_linear_0_5477" x1="125.146" y1="49.5936" x2="111.705" y2="74.7278" gradientUnits="userSpaceOnUse">
<stop stop-color="#AB316D"/>
<stop offset="1" stop-color="#792D3D"/>
</linearGradient>
<linearGradient id="paint80_linear_0_5477" x1="126.497" y1="53.1222" x2="115.369" y2="78.5455" gradientUnits="userSpaceOnUse">
<stop stop-color="#AB316D"/>
<stop offset="1" stop-color="#792D3D"/>
</linearGradient>
<linearGradient id="paint81_linear_0_5477" x1="64.2678" y1="47.3439" x2="50.169" y2="122.058" gradientUnits="userSpaceOnUse">
<stop stop-color="#AB316D"/>
<stop offset="1" stop-color="#792D3D"/>
</linearGradient>
<linearGradient id="paint82_linear_0_5477" x1="139.65" y1="58.6634" x2="141.158" y2="58.3266" gradientUnits="userSpaceOnUse">
<stop stop-color="#FFC444"/>
<stop offset="0.9964" stop-color="#F36F56"/>
</linearGradient>
<linearGradient id="paint83_linear_0_5477" x1="53.828" y1="71.5207" x2="89.1415" y2="89.8846" gradientUnits="userSpaceOnUse">
<stop stop-color="#444B8C"/>
<stop offset="0.9964" stop-color="#26264F"/>
</linearGradient>
<linearGradient id="paint84_linear_0_5477" x1="52.8643" y1="14.8541" x2="-6.95654" y2="95.5239" gradientUnits="userSpaceOnUse">
<stop stop-color="#FFC444"/>
<stop offset="0.9964" stop-color="#F36F56"/>
</linearGradient>
<linearGradient id="paint85_linear_0_5477" x1="84.0387" y1="32.8404" x2="66.1401" y2="55.3151" gradientUnits="userSpaceOnUse">
<stop stop-color="#FFC444"/>
<stop offset="0.9964" stop-color="#F36F56"/>
</linearGradient>
<linearGradient id="paint86_linear_0_5477" x1="31.788" y1="28.0939" x2="59.5137" y2="94.6922" gradientUnits="userSpaceOnUse">
<stop stop-color="#FFC444"/>
<stop offset="0.9964" stop-color="#F36F56"/>
</linearGradient>
<linearGradient id="paint87_linear_0_5477" x1="112.631" y1="174.702" x2="167.881" y2="41.0859" gradientUnits="userSpaceOnUse">
<stop offset="0.00359712" stop-color="#EBEFF2"/>
<stop offset="1" stop-color="white"/>
</linearGradient>
<linearGradient id="paint88_linear_0_5477" x1="78.1564" y1="19.7998" x2="32.6548" y2="63.707" gradientUnits="userSpaceOnUse">
<stop stop-color="#FFC444"/>
<stop offset="0.9964" stop-color="#F36F56"/>
</linearGradient>
<linearGradient id="paint89_linear_0_5477" x1="37.9751" y1="52.3792" x2="72.7201" y2="110.698" gradientUnits="userSpaceOnUse">
<stop stop-color="#FF9085"/>
<stop offset="1" stop-color="#FB6FBB"/>
</linearGradient>
<linearGradient id="paint90_linear_0_5477" x1="64.6333" y1="140.154" x2="99.005" y2="141.612" gradientUnits="userSpaceOnUse">
<stop stop-color="#FF9085"/>
<stop offset="1" stop-color="#FB6FBB"/>
</linearGradient>
<linearGradient id="paint91_linear_0_5477" x1="26.7686" y1="55.8971" x2="57.5684" y2="116.472" gradientUnits="userSpaceOnUse">
<stop stop-color="#FF9085"/>
<stop offset="1" stop-color="#FB6FBB"/>
</linearGradient>
<linearGradient id="paint92_linear_0_5477" x1="34.4811" y1="90.0328" x2="35.8854" y2="90.0328" gradientUnits="userSpaceOnUse">
<stop stop-color="#311944"/>
<stop offset="1" stop-color="#A03976"/>
</linearGradient>
<linearGradient id="paint93_linear_0_5477" x1="31.0927" y1="81.452" x2="26.8807" y2="94.4189" gradientUnits="userSpaceOnUse">
<stop stop-color="#444B8C"/>
<stop offset="0.9964" stop-color="#26264F"/>
</linearGradient>
<linearGradient id="paint94_linear_0_5477" x1="47.3816" y1="73.8702" x2="32.874" y2="71.4868" gradientUnits="userSpaceOnUse">
<stop stop-color="#AB316D"/>
<stop offset="1" stop-color="#792D3D"/>
</linearGradient>
<linearGradient id="paint95_linear_0_5477" x1="8.96924" y1="76.8387" x2="7.26568" y2="90.2293" gradientUnits="userSpaceOnUse">
<stop stop-color="#444B8C"/>
<stop offset="0.9964" stop-color="#26264F"/>
</linearGradient>
<linearGradient id="paint96_linear_0_5477" x1="13.0419" y1="94.1345" x2="14.9142" y2="94.1345" gradientUnits="userSpaceOnUse">
<stop stop-color="#311944"/>
<stop offset="1" stop-color="#A03976"/>
</linearGradient>
<linearGradient id="paint97_linear_0_5477" x1="43.0498" y1="64.2978" x2="49.7798" y2="62.1127" gradientUnits="userSpaceOnUse">
<stop stop-color="#AB316D"/>
<stop offset="1" stop-color="#792D3D"/>
</linearGradient>
<linearGradient id="paint98_linear_0_5477" x1="46.775" y1="73.8543" x2="32.3307" y2="71.79" gradientUnits="userSpaceOnUse">
<stop stop-color="#AB316D"/>
<stop offset="1" stop-color="#792D3D"/>
</linearGradient>
<linearGradient id="paint99_linear_0_5477" x1="21.2427" y1="70.7718" x2="7.69957" y2="87.0777" gradientUnits="userSpaceOnUse">
<stop stop-color="#AB316D"/>
<stop offset="1" stop-color="#792D3D"/>
</linearGradient>
<linearGradient id="paint100_linear_0_5477" x1="39.2201" y1="49.0239" x2="34.2603" y2="60.749" gradientUnits="userSpaceOnUse">
<stop stop-color="#FFC444"/>
<stop offset="0.9964" stop-color="#F36F56"/>
</linearGradient>
<linearGradient id="paint101_linear_0_5477" x1="45.7296" y1="66.7638" x2="52.474" y2="64.5027" gradientUnits="userSpaceOnUse">
<stop stop-color="#AB316D"/>
<stop offset="1" stop-color="#792D3D"/>
</linearGradient>
<linearGradient id="paint102_linear_0_5477" x1="43.6373" y1="61.8976" x2="44.2667" y2="58.7094" gradientUnits="userSpaceOnUse">
<stop stop-color="#311944"/>
<stop offset="1" stop-color="#A03976"/>
</linearGradient>
<linearGradient id="paint103_linear_0_5477" x1="21.7105" y1="69.318" x2="6.19377" y2="83.7627" gradientUnits="userSpaceOnUse">
<stop stop-color="#AB316D"/>
<stop offset="1" stop-color="#792D3D"/>
</linearGradient>
<linearGradient id="paint104_linear_0_5477" x1="41.2179" y1="62.8155" x2="44.4193" y2="59.9063" gradientUnits="userSpaceOnUse">
<stop stop-color="#311944"/>
<stop offset="1" stop-color="#A03976"/>
</linearGradient>
<linearGradient id="paint105_linear_0_5477" x1="41.7388" y1="62.6358" x2="44.3275" y2="59.0302" gradientUnits="userSpaceOnUse">
<stop stop-color="#311944"/>
<stop offset="1" stop-color="#A03976"/>
</linearGradient>
<linearGradient id="paint106_linear_0_5477" x1="20.494" y1="52.4825" x2="12.5936" y2="81.2194" gradientUnits="userSpaceOnUse">
<stop stop-color="#FFC444"/>
<stop offset="0.9964" stop-color="#F36F56"/>
</linearGradient>
<linearGradient id="paint107_linear_0_5477" x1="20.2091" y1="52.5661" x2="12.5428" y2="81.3055" gradientUnits="userSpaceOnUse">
<stop stop-color="#FFC444"/>
<stop offset="0.9964" stop-color="#F36F56"/>
</linearGradient>
</defs>
</svg>
